<svg width="319" height="274" viewBox="0 0 319 274" fill="none" xmlns="http://www.w3.org/2000/svg">
<rect x="159" y="43" width="90" height="112" fill="white"/>
<path d="M35.2937 178.044C35.2937 182.149 38.6531 185.508 42.7585 185.508H276.089C280.194 185.508 283.553 182.149 283.553 178.044L283.557 124.841C283.557 56.3326 227.932 0.710602 159.427 0.710602C90.9222 0.710602 35.2972 56.3396 35.2972 124.841L35.2937 178.044ZM162.414 54.4736C162.972 50.3681 166.894 47.5674 170.812 48.1259C208.332 53.7275 236.707 86.7669 236.707 124.661C236.707 128.766 233.348 132.126 229.242 132.126C225.137 132.126 221.777 128.766 221.777 124.661C221.777 93.8599 198.816 67.3519 168.578 62.8759C164.653 62.3134 161.851 58.579 162.414 54.4736Z" fill="#C45E5E"/>
<rect y="202" width="319" height="72" rx="36" fill="white"/>
</svg>
