<svg width="140" height="180" viewBox="0 0 337 449" fill="white" xmlns="http://www.w3.org/2000/svg">
<path d="M6.25002 448H330.88C333.978 448 336.482 445.492 336.482 442.398L336.478 29.3984C336.478 26.3086 333.974 23.7968 330.876 23.7968H304.259L304.263 5.60581C304.263 2.51601 301.759 0.00421143 298.661 0.00421143C295.564 0.00421143 293.06 2.51201 293.06 5.60581V23.8008H280.458L280.462 5.60581C280.462 2.51601 277.958 0.00421143 274.86 0.00421143C271.762 0.00421143 269.259 2.51201 269.259 5.60581V23.8008H224.997V5.60581C224.997 2.51601 222.493 0.00421143 219.395 0.00421143C216.297 0.00421143 213.793 2.51201 213.793 5.60581V23.8008H201.191L201.199 5.60581C201.199 2.51601 198.695 0.00421143 195.598 0.00421143C192.5 0.00421143 189.996 2.51201 189.996 5.60581V23.8008L145.723 23.7969V5.6059C145.723 2.5161 143.219 0.00430679 140.121 0.00430679C137.024 0.00430679 134.52 2.5121 134.52 5.6059V23.8009H121.918L121.926 5.6059C121.926 2.5161 119.422 0.00430679 116.324 0.00430679C113.226 0.00430679 110.722 2.5121 110.722 5.6059V23.8009H66.4603V5.6059C66.4603 2.5161 63.9564 0.00430679 60.8587 0.00430679C57.761 0.00430679 55.2571 2.5121 55.2571 5.6059V23.8009H42.6552L42.6591 5.6059C42.6591 2.5161 40.1551 0.00430679 37.0574 0.00430679C33.9597 0.00430679 31.4559 2.5121 31.4559 5.6059V23.8009H6.23685C3.13915 23.8009 0.635254 26.3087 0.635254 29.4025L0.643066 442.402C0.643066 445.496 3.14696 448.004 6.24466 448.004L6.25002 448ZM11.8477 35H31.4647V53.195C31.4647 56.2848 33.9686 58.7966 37.0663 58.7966C40.164 58.7966 42.6679 56.2888 42.6679 53.195V35H55.2699V53.195C55.2699 56.2848 57.7738 58.7966 60.8715 58.7966C63.9692 58.7966 66.4731 56.2888 66.4731 53.195V35H110.735V53.195C110.735 56.2848 113.239 58.7966 116.337 58.7966C119.434 58.7966 121.938 56.2888 121.938 53.195V35H134.54V53.195C134.54 56.2848 137.044 58.7966 140.142 58.7966C143.24 58.7966 145.744 56.2888 145.744 53.195V35H190.014V53.195C190.014 56.2848 192.517 58.7966 195.615 58.7966C198.713 58.7966 201.217 56.2888 201.217 53.195V35H213.819V53.195C213.819 56.2848 216.323 58.7966 219.42 58.7966C222.518 58.7966 225.022 56.2888 225.022 53.195V35H269.284V53.195C269.284 56.2848 271.788 58.7966 274.885 58.7966C277.983 58.7966 280.487 56.2888 280.487 53.195V35H293.089V53.195C293.089 56.2848 295.593 58.7966 298.691 58.7966C301.788 58.7966 304.292 56.2888 304.292 53.195V35H325.308L325.277 436.8H11.8471L11.851 35H11.8477Z" fill="inherit"/>
<path d="M298.66 264.3H37.07C33.9723 264.3 31.4684 266.808 31.4684 269.902C31.4684 272.991 33.9723 275.503 37.07 275.503H298.67C301.768 275.503 304.272 272.995 304.272 269.902C304.272 266.808 301.76 264.3 298.666 264.3H298.66Z" fill="inherit"/>
<path d="M298.66 323.7H37.07C33.9723 323.7 31.4684 326.208 31.4684 329.302C31.4684 332.391 33.9723 334.903 37.07 334.903H298.67C301.768 334.903 304.272 332.395 304.272 329.302C304.272 326.212 301.76 323.7 298.666 323.7H298.66Z" fill="inherit"/>
<path d="M298.66 383.1H37.07C33.9723 383.1 31.4684 385.608 31.4684 388.702C31.4684 391.791 33.9723 394.303 37.07 394.303H298.67C301.768 394.303 304.272 391.795 304.272 388.702C304.272 385.608 301.76 383.1 298.666 383.1H298.66Z" fill="inherit"/>
<path d="M166.45 231.6C167.126 231.873 167.845 232.014 168.559 232.014C169.278 232.014 169.993 231.881 170.669 231.6C173.333 230.514 236.107 204.455 247.642 154.041C254.564 123.783 237.802 101.889 219.306 94.338C200.841 86.8185 181.646 92.2755 168.56 108.209C155.474 92.283 136.287 86.807 117.814 94.338C99.3099 101.881 82.5559 123.783 89.4779 154.041C101.013 204.451 163.783 230.514 166.451 231.6H166.45ZM122.04 104.71C125.771 103.191 129.966 102.273 134.333 102.273C144.423 102.273 155.438 107.163 163.782 120.785C165.813 124.105 171.298 124.105 173.329 120.785C185.29 101.258 202.735 99.6795 215.071 104.707C229.329 110.519 242.184 127.656 236.719 151.535C227.586 191.418 179.281 215.414 168.543 220.293C157.809 215.421 109.531 191.496 100.387 151.535C94.9377 127.66 107.789 110.527 122.039 104.711L122.04 104.71Z" fill="inherit"/>
</svg>
