<svg width="144" height="129" viewBox="0 0 144 129" fill="none" xmlns="http://www.w3.org/2000/svg">
<path d="M144 126C144 127.657 142.657 129 141 129H49.2857C47.6289 129 46.2857 127.657 46.2857 126V75.24C46.2857 73.5831 44.9426 72.24 43.2857 72.24H3C1.34314 72.24 0 70.8969 0 69.24V13.32C0 11.6631 1.34315 10.32 3 10.32H7.28571C8.94257 10.32 10.2857 8.97685 10.2857 7.32V3C10.2857 1.34314 11.6289 0 13.2857 0H38.1429C39.7997 0 41.1429 1.34315 41.1429 3V7.32C41.1429 8.97686 42.486 10.32 44.1429 10.32H53.5714C55.2283 10.32 56.5714 8.97685 56.5714 7.32V3C56.5714 1.34314 57.9146 0 59.5714 0H84.4286C86.0854 0 87.4286 1.34315 87.4286 3V7.32C87.4286 8.97686 88.7717 10.32 90.4286 10.32H94.7143C96.3711 10.32 97.7143 11.6631 97.7143 13.32V64.5086C97.7143 65.9287 98.8656 67.08 100.286 67.08V67.08C101.706 67.08 102.857 65.9287 102.857 64.5086V59.76C102.857 58.1031 104.2 56.76 105.857 56.76H130.714C132.371 56.76 133.714 58.1031 133.714 59.76V64.08C133.714 65.7369 135.057 67.08 136.714 67.08H141C142.657 67.08 144 68.4231 144 70.08V126ZM51.4286 120.84C51.4286 122.497 52.7717 123.84 54.4286 123.84H135.857C137.514 123.84 138.857 122.497 138.857 120.84V75.24C138.857 73.5831 137.514 72.24 135.857 72.24H54.4286C52.7717 72.24 51.4286 73.5831 51.4286 75.24V120.84ZM108 64.5C108 65.9249 109.155 67.08 110.58 67.08H125.991C127.416 67.08 128.571 65.9249 128.571 64.5V64.5C128.571 63.0751 127.416 61.92 125.991 61.92H110.58C109.155 61.92 108 63.0751 108 64.5V64.5ZM5.14286 64.08C5.14286 65.7369 6.486 67.08 8.14286 67.08H89.5714C91.2283 67.08 92.5714 65.7369 92.5714 64.08V18.48C92.5714 16.8231 91.2283 15.48 89.5714 15.48H8.14286C6.486 15.48 5.14286 16.8231 5.14286 18.48V64.08ZM61.7143 7.74C61.7143 9.16489 62.8694 10.32 64.2943 10.32H79.7057C81.1306 10.32 82.2857 9.16489 82.2857 7.74V7.74C82.2857 6.3151 81.1306 5.16 79.7057 5.16H64.2943C62.8694 5.16 61.7143 6.3151 61.7143 7.74V7.74ZM15.4286 7.74C15.4286 9.16489 16.5837 10.32 18.0086 10.32H33.42C34.8449 10.32 36 9.16489 36 7.74V7.74C36 6.3151 34.8449 5.16 33.42 5.16H18.0086C16.5837 5.16 15.4286 6.3151 15.4286 7.74V7.74Z" fill="#D35ABF" fill-opacity="0.2"/>
</svg>
