<?xml version="1.0" encoding="UTF-8"?>
<svg width="85px" height="72px" viewBox="0 0 85 72" version="1.1" xmlns="http://www.w3.org/2000/svg" xmlns:xlink="http://www.w3.org/1999/xlink">
    <defs></defs>
    <g id="Page-1" stroke="none" stroke-width="1" fill="none" fill-rule="evenodd">
        <g id="noun_Mining_1941856" fill-rule="nonzero" fill="#000000">
            <path fill="currentColor" d="M32.81,22.83 C33.42,23.51 33.94,24.11 34.41,24.56 C34.8412163,24.9983423 35.4253497,25.2527808 36.04,25.27 C36.3196691,25.2753238 36.5957385,25.2063065 36.84,25.07 C37.4002404,24.7736145 37.6914766,24.1378172 37.55,23.52 C36.43,17.92 30,10.75 24.93,7.81 L24.93,7.81 L24.93,7.81 L25.19,7.38 C25.5226802,6.80474643 25.6126449,6.1207118 25.4400207,5.47900028 C25.2673966,4.83728876 24.8463893,4.29070856 24.27,3.96 C23.6962703,3.62778109 23.0137418,3.53807945 22.373654,3.71077178 C21.7335661,3.88346411 21.1887752,4.30429003 20.86,4.88 L20.6,5.31 L20.6,5.36 C15.44,2.56 6.38,0.72 1.1,2.51 C0.491277784,2.69470791 0.0816165972,3.26413696 0.1,3.9 C0.199080564,4.8144721 0.871446245,5.56333447 1.77,5.76 C2.39,5.93 3.17,6.09 4.07,6.27 C8.57365061,7.05850864 12.9326546,8.52162366 17,10.61 L0.19,39.66 L5.39,42.66 L22.18,13.58 C26.1895929,16.082613 29.7773955,19.2046426 32.81,22.83 Z M22.61,5.83 C22.7455858,5.59010831 23.0497026,5.50513449 23.29,5.64 C23.4075204,5.70563066 23.4912614,5.81849893 23.52,5.95 C23.5544705,6.07827967 23.5364805,6.21500336 23.47,6.33 L23.22,6.76 L22.36,6.26 L22.61,5.83 Z M19.86,10.6 L21.36,8 L22.22,8.5 L20.72,11.1 L20.29,10.85 L19.86,10.6 Z M35.19,22.49 L34.3,21.49 C31.0152059,17.5798805 27.1138539,14.2324868 22.75,11.58 L23.93,9.53 C28.19,12 33.5,17.76 35.19,22.49 Z M3.17,4 C7.96,3.13 15.27,4.72 19.59,7.05 L18.41,9.1 C14.0424505,6.76752208 9.33476178,5.13754815 4.46,4.27 L3.17,4 Z M4.66,39.93 L2.92,38.93 L18.42,12.08 L19.29,12.58 L20.16,13.08 L4.66,39.93 Z" id="Shape"></path>
            <path fill="currentColor" d="M40,29 L26,29 L26,43 L40,43 L40,29 Z M38,41 L28,41 L28,31 L38,31 L38,41 Z" id="Shape"></path>
            <path fill="currentColor" d="M81,48 C79.7317451,48.0035644 78.6027483,48.8042713 78.18,50 L65,50 L65,47 L72,47 L72,42 L75.18,42 C75.6670363,43.3775467 77.0756662,44.2038721 78.5157331,43.9567957 C79.9557999,43.7097193 81.0084271,42.4611089 81.0084271,41 C81.0084271,39.5388911 79.9557999,38.2902807 78.5157331,38.0432043 C77.0756662,37.7961279 75.6670363,38.6224533 75.18,40 L70,40 L70,45 L65,45 L65,34 L43,34 L43,46 L31,46 L31,68 L65,68 L65,63 L70,63 L70,69 L76.18,69 C76.6670363,70.3775467 78.0756662,71.2038721 79.5157331,70.9567957 C80.9557999,70.7097193 82.0084271,69.4611089 82.0084271,68 C82.0084271,66.5388911 80.9557999,65.2902807 79.5157331,65.0432043 C78.0756662,64.7961279 76.6670363,65.6224533 76.18,67 L72,67 L72,61 L65,61 L65,58 L71.18,58 C71.6670363,59.3775467 73.0756662,60.2038721 74.5157331,59.9567957 C75.9557999,59.7097193 77.0084271,58.4611089 77.0084271,57 C77.0084271,55.5388911 75.9557999,54.2902807 74.5157331,54.0432043 C73.0756662,53.7961279 71.6670363,54.6224533 71.18,56 L65,56 L65,52 L78.18,52 C78.6889108,53.4393979 80.1976639,54.2670245 81.685041,53.9226904 C83.172418,53.5783562 84.163971,52.1718981 83.9885549,50.6552947 C83.8131388,49.1386914 82.5267083,47.9957135 81,48 Z M78,40 C78.5522847,40 79,40.4477153 79,41 C79,41.5522847 78.5522847,42 78,42 C77.4477153,42 77,41.5522847 77,41 C77,40.4477153 77.4477153,40 78,40 Z M79,67 C79.5522847,67 80,67.4477153 80,68 C80,68.5522847 79.5522847,69 79,69 C78.4477153,69 78,68.5522847 78,68 C78,67.4477153 78.4477153,67 79,67 Z M74,56 C74.5522847,56 75,56.4477153 75,57 C75,57.5522847 74.5522847,58 74,58 C73.4477153,58 73,57.5522847 73,57 C73,56.4477153 73.4477153,56 74,56 Z M63,63 L63,66 L33,66 L33,48 L45,48 L45,36 L63,36 L63,63 Z M81,52 C80.4477153,52 80,51.5522847 80,51 C80,50.4477153 80.4477153,50 81,50 C81.5522847,50 82,50.4477153 82,51 C82,51.5522847 81.5522847,52 81,52 Z" id="Shape"></path>
            <path fill="currentColor" d="M53,16 L45,16 L45,24 L53,24 L53,16 Z M51,22 L47,22 L47,18 L51,18 L51,22 Z" id="Shape"></path>
            <path fill="currentColor" d="M44,0 L34,0 L34,10 L44,10 L44,0 Z M42,8 L36,8 L36,2 L42,2 L42,8 Z" id="Shape"></path>
        </g>
    </g>
</svg>
