<?xml version="1.0" encoding="UTF-8"?>
<svg fill="currentColor" width="96px" height="94px" viewBox="0 0 96 94" version="1.1" xmlns="http://www.w3.org/2000/svg" xmlns:xlink="http://www.w3.org/1999/xlink">
    <g id="Page-1" stroke="none" stroke-width="1" fill="none" fill-rule="evenodd">
        <g id="noun_keys_626598" fill-rule="nonzero" fill="#000000">
            <path fill="currentColor" d="M84.7,54 L51.7,35.2 C52.2,33.2 52.1,31.1 51.3,29.2 C52.5,28.2 53.4,27 54.1,25.5 C54.2,25.3 54.2,25.1 54.3,24.9 L81.8,24.7 L81.8,28.4 C80.6,28.4 79.7,29.4 79.7,30.5 C79.7,30.6 79.7,30.6 79.7,30.7 C79.7,30.7 79.7,30.7 79.7,30.8 L79.7,36.1 C79.7,36.3 79.9,36.5 80.1,36.5 L83,36.5 C83.2,36.5 83.4,36.3 83.4,36.1 L83.4,33 L84.3,33 L84.4,35.2 C84.4,35.4 84.6,35.6 84.8,35.6 L87.7,35.6 C87.9,35.6 88.1,35.4 88.1,35.2 L88,33 L88.9,33 L88.9,36.1 C88.9,36.3 89.1,36.5 89.3,36.5 L92.2,36.5 C92.4,36.5 92.6,36.3 92.6,36.1 L92.6,30.8 C92.6,30.8 92.6,30.7 92.6,30.7 C92.6,30.7 92.6,30.6 92.6,30.6 C92.6,29.5 91.7,28.5 90.6,28.5 L90.6,24.7 L92.3,24.7 L92.3,24.7 C93.9,24.6 95.1,23.3 95.1,21.7 C95.1,20.1 93.8,18.8 92.3,18.8 L54.3,19.1 C53.5,16.3 51.6,13.9 48.7,12.7 C46.7,11.8 44.6,11.7 42.6,12.2 C39.2,4.9 31.7,0 23.1,0 C10.7,0 0.6,10.1 0.6,22.5 C0.6,31.5 5.9,39.2 13.5,42.8 C13.1,46.9 15.3,51 19.3,52.7 C19.5,52.8 19.7,52.8 19.9,52.9 L19.8,80.4 L16.1,80.4 C16.1,79.2 15.1,78.3 14,78.3 C13.9,78.3 13.9,78.3 13.8,78.3 C13.8,78.3 13.8,78.3 13.7,78.3 L8.4,78.3 C8.2,78.3 8,78.5 8,78.7 L8,81.6 C8,81.8 8.2,82 8.4,82 L11.5,82 L11.5,82.9 L9.3,83 C9.1,83 8.9,83.2 8.9,83.4 L8.9,86.3 C8.9,86.5 9.1,86.7 9.3,86.7 L11.5,86.6 L11.5,87.5 L8.4,87.5 C8.2,87.5 8,87.7 8,87.9 L8,90.8 C8,91 8.2,91.2 8.4,91.2 L13.7,91.2 C13.7,91.2 13.8,91.2 13.8,91.2 C13.8,91.2 13.9,91.2 13.9,91.2 C15,91.2 16,90.3 16,89.2 L19.8,89.2 L19.8,90.9 L19.8,90.9 C19.9,92.5 21.1,93.7 22.7,93.7 C24.3,93.7 25.6,92.5 25.6,90.9 L25.7,52.9 C27.7,52.4 29.5,51.2 30.8,49.6 C32.2,50.1 33.8,50.4 35.4,50.2 C35.6,50.2 35.8,50.1 36,50.1 L49.7,73.9 L46.5,75.8 C45.9,74.8 44.6,74.4 43.6,75 C43.6,75 43.5,75.1 43.5,75.1 C43.5,75.1 43.5,75.1 43.5,75.1 L38.9,77.7 C38.7,77.8 38.6,78.1 38.7,78.3 L40.2,80.8 C40.3,81 40.6,81.1 40.8,81 L43.5,79.4 L44,80.2 L42,81.7 C41.8,81.8 41.7,82.1 41.8,82.3 L43.3,84.8 C43.4,85 43.7,85.1 43.9,85 L45.8,83.9 L46.3,84.7 L43.6,86.3 C43.4,86.4 43.3,86.7 43.4,86.9 L44.9,89.4 C45,89.6 45.3,89.7 45.5,89.6 L50.1,87 C50.1,87 50.2,87 50.2,86.9 C50.2,86.9 50.3,86.9 50.3,86.8 C51.3,86.2 51.6,85 51.1,84 L54.3,82.1 L55.2,83.5 L55.2,83.5 C56,84.8 57.8,85.3 59.1,84.5 C60.5,83.7 61,82 60.2,80.6 L41.2,47.7 C42.6,46.3 43.6,44.4 43.9,42.3 C45.4,42.1 46.9,41.5 48.2,40.5 C48.4,40.4 48.5,40.2 48.7,40.1 L72.5,53.7 L70.6,57 C69.6,56.4 68.3,56.8 67.7,57.8 C67.7,57.8 67.6,57.9 67.6,57.9 C67.6,57.9 67.6,57.9 67.6,57.9 L65,62.6 C64.9,62.8 65,63.1 65.2,63.2 L67.8,64.7 C68,64.8 68.3,64.7 68.4,64.5 L70,61.8 L70.8,62.2 L69.8,64.1 C69.7,64.3 69.8,64.6 70,64.7 L72.6,66.2 C72.8,66.3 73.1,66.2 73.2,66 L74.2,64.1 L75,64.5 L73.4,67.2 C73.3,67.4 73.4,67.7 73.6,67.8 L76.2,69.3 C76.4,69.4 76.7,69.3 76.8,69.1 L79.4,64.5 C79.4,64.5 79.4,64.4 79.4,64.4 C79.4,64.4 79.4,64.3 79.5,64.3 C80.1,63.3 79.8,62.1 78.8,61.5 L80.7,58.2 L82.2,59 L82.2,59 C83.6,59.7 85.3,59.2 86.1,57.9 C86.5,56.5 86.1,54.8 84.7,54 Z M45.2,36.5 C44.6,36.9 44,37.2 43.4,37.3 C43,36.4 42.6,35.5 42,34.7 C42.7,33.6 43.4,32.4 43.9,31.2 C44.9,31.3 45.9,31.3 46.9,31.2 C47.5,33.1 46.9,35.2 45.2,36.5 Z M24.6,39.2 C24.5,39.8 24.5,40.3 24.5,40.9 C24,41 23.5,41 23.1,41 C21.9,41 20.7,40.9 19.6,40.7 C20.8,39.2 22.7,38.6 24.6,39.2 Z M30.7,37.6 C31.3,36.9 32.2,36.4 33.2,36.2 C33.4,36.7 33.6,37.1 33.8,37.6 C33.1,38.1 32.4,38.6 31.6,39 C31.4,38.4 31.1,38 30.7,37.6 Z M40.8,19.6 C40.9,19.3 41,19.1 41.2,18.9 C41.4,20.1 41.6,21.3 41.6,22.5 C41.6,22.6 41.6,22.8 41.6,22.9 C41.3,22.9 41,23 40.7,23 C40.3,21.9 40.3,20.8 40.8,19.6 Z M39.1,29.1 C39.4,29.3 39.7,29.6 40.1,29.8 C39.8,30.6 39.3,31.4 38.9,32.1 C38.5,31.9 38.1,31.7 37.7,31.6 C37.9,30.7 38.3,29.8 39.1,29.1 Z M47.1,17.1 C49.5,18.1 50.7,21 49.6,23.4 C49.3,24 48.9,24.6 48.4,25 C47.5,24.3 46.5,23.7 45.5,23.4 C45.5,23.1 45.5,22.8 45.5,22.5 C45.5,20.5 45.2,18.6 44.8,16.8 C45.6,16.7 46.3,16.8 47.1,17.1 Z M4.6,22.5 C4.6,12.3 12.9,4 23.1,4 C30.1,4 36.2,7.9 39.4,13.7 C38.1,14.7 37,16 36.3,17.7 C35.3,20.2 35.3,22.8 36.2,25.1 C34.3,26.7 33.1,28.8 32.8,31.1 C30.4,31.5 28.2,32.8 26.8,34.6 C22.3,32.9 17.2,34.7 14.8,38.9 C8.7,35.9 4.6,29.7 4.6,22.5 Z M21.2,48.1 C19.7,47.4 18.7,46 18.4,44.5 C19.9,44.8 21.4,45 23,45 C23.8,45 24.5,45 25.3,44.9 C25.7,45.7 26.1,46.4 26.6,47 C25.3,48.4 23.2,49 21.2,48.1 Z M34.8,45.5 C34.1,45.6 33.4,45.5 32.8,45.3 C32.9,44.4 33,43.6 32.9,42.7 C34.2,42.1 35.4,41.3 36.5,40.5 C37.2,41 38,41.5 38.9,41.8 C38.5,43.7 36.9,45.3 34.8,45.5 Z" id="Shape"></path>
        </g>
    </g>
</svg>
