<?xml version="1.0" encoding="UTF-8"?>
<svg fill="currentColor" width="95px" height="94px" viewBox="0 0 95 94" version="1.1" xmlns="http://www.w3.org/2000/svg" xmlns:xlink="http://www.w3.org/1999/xlink">
    <g id="Page-1" stroke="none" stroke-width="1" fill="none" fill-rule="evenodd">
        <g id="noun_Key_677345" transform="translate(-1.000000, -1.000000)" fill-rule="nonzero" fill="#000000">
            <path fill="currentColor" d="M44.7,64.83 L49.12,69.25 C50.0894017,70.2619552 51.4389813,70.8206521 52.84,70.79 L58.07,70.79 L58.07,75.21 C58.07,78.5237085 60.7562915,81.21 64.07,81.21 L68.49,81.21 L68.49,86.43 C68.4943579,87.8066086 69.0361828,89.1270826 70,90.11 L73.47,93.58 C74.3902226,94.4921843 75.6342831,95.0027525 76.93,95 L90.71,95 C93.0825432,94.9945016 95.0045016,93.0725432 95.01,90.7 L95.01,90.7 L95.01,76.92 C95.0138696,75.6142679 94.4953672,74.3612204 93.57,73.44 L64.83,44.7 C69.9061108,30.2321508 64.2986764,14.1769647 51.3189773,6.01528776 C38.3392781,-2.14638918 21.4398178,-0.243611464 10.6,10.6 C-0.243611464,21.4398178 -2.14638918,38.3392781 6.01528776,51.3189773 C14.1769647,64.2986764 30.2321508,69.9061108 44.7,64.83 Z M14.85,14.83 C23.9330835,5.73493879 38.1879927,4.35313652 48.8488169,11.5343184 C59.509641,18.7155002 63.5855059,32.4449992 58.57,44.28 C58.0937136,45.4046982 58.3468281,46.7058651 59.21,47.57 L89,77.37 L89,89 L77.37,89 L74.44,86.07 L74.44,79 C74.44,76.8681809 72.7118191,75.14 70.58,75.14 L70.58,75.14 L64.07,75.14 L64.07,68.65 C64.07,66.5181809 62.3418191,64.79 60.21,64.79 L53.15,64.79 L47.57,59.21 C46.7058651,58.3468281 45.4046982,58.0937136 44.28,58.57 C32.4465487,63.5750549 18.7257438,59.495356 11.5493123,48.8379654 C4.3728809,38.1805747 5.75234729,23.9327151 14.84,14.85 L14.85,14.83 Z M27.41,38.42 C33.4851322,38.42 38.41,33.4951322 38.41,27.42 C38.41,21.3448678 33.4851322,16.42 27.41,16.42 C21.3348678,16.42 16.41,21.3448678 16.41,27.42 C16.41,33.4951322 21.3348678,38.42 27.41,38.42 Z M27.41,22.5 C30.1714237,22.5 32.41,24.7385763 32.41,27.5 C32.41,30.2614237 30.1714237,32.5 27.41,32.5 C24.6485763,32.5 22.41,30.2614237 22.41,27.5 C22.4073444,26.1721858 22.932956,24.8978457 23.8709259,23.9579999 C24.8088957,23.018154 26.0821831,22.4899973 27.41,22.49 L27.41,22.5 Z" id="Shape"></path>
        </g>
    </g>
</svg>
