<?xml version="1.0" encoding="UTF-8"?>
<svg fill="currentColor" width="90px" height="90px" viewBox="0 0 90 90" version="1.1" xmlns="http://www.w3.org/2000/svg" xmlns:xlink="http://www.w3.org/1999/xlink">
    <g id="Page-1" stroke="none" stroke-width="1" fill-rule="evenodd">
        <g id="noun_transaction_1260807" >
            <path d="M88.813,21.68 L62.529,0.654 C61.987,0.22 61.439,0 60.901,0 C59.957,0 59.004,0.727 59.004,2.348 L59.004,12.823 L14.362,12.823 C12.478,12.823 10.945,14.356 10.945,16.241 L10.945,31.709 C10.945,33.594 12.478,35.127 14.362,35.127 L59.004,35.127 L59.004,45.602 C59.004,47.223 59.957,47.949 60.901,47.95 C61.439,47.95 61.987,47.729 62.529,47.296 L88.813,26.27 C89.55,25.682 89.972,24.846 89.972,23.977 C89.972,23.104 89.55,22.269 88.813,21.68 Z M87.546,24.684 L61.262,45.709 C61.18,45.774 61.109,45.82 61.053,45.853 C61.042,45.789 61.034,45.706 61.034,45.601 L61.034,34.11 C61.034,33.55 60.579,33.095 60.019,33.095 L14.362,33.095 C13.597,33.095 12.974,32.473 12.974,31.707 L12.974,16.24 C12.974,15.475 13.597,14.852 14.362,14.852 L60.018,14.852 C60.579,14.852 61.033,14.397 61.033,13.836 L61.033,2.348 C61.033,2.244 61.041,2.16 61.052,2.096 C61.109,2.127 61.179,2.174 61.261,2.24 L87.545,23.265 C87.8,23.47 87.941,23.722 87.941,23.975 C87.942,24.227 87.801,24.479 87.546,24.684 Z" id="Shape"></path>
            <path d="M29.099,90 C30.043,90 30.996,89.274 30.996,87.652 L30.996,77.178 L75.638,77.178 C77.522,77.178 79.055,75.645 79.055,73.76 L79.055,58.292 C79.055,56.407 77.522,54.874 75.638,54.874 L30.996,54.874 L30.996,44.4 C30.996,42.778 30.043,42.051 29.099,42.051 C28.561,42.051 28.013,42.272 27.471,42.705 L1.187,63.732 C0.45,64.32 0.028,65.156 0.028,66.025 C0.028,66.895 0.45,67.731 1.187,68.32 L27.47,89.346 C28.013,89.78 28.561,90 29.099,90 Z M2.058,66.025 C2.058,65.773 2.199,65.521 2.454,65.316 L28.738,44.291 C28.821,44.226 28.891,44.18 28.947,44.147 C28.958,44.211 28.966,44.295 28.966,44.4 L28.966,55.89 C28.966,56.45 29.421,56.905 29.981,56.905 L75.637,56.905 C76.402,56.905 77.025,57.527 77.025,58.293 L77.025,73.76 C77.025,74.525 76.402,75.148 75.637,75.148 L29.981,75.148 C29.42,75.148 28.966,75.603 28.966,76.164 L28.966,87.653 C28.966,87.757 28.958,87.841 28.947,87.905 C28.89,87.874 28.82,87.827 28.738,87.761 L2.454,66.735 C2.199,66.53 2.058,66.278 2.058,66.025 Z" id="Shape"></path>
        </g>
    </g>
</svg>
