<?xml version="1.0" encoding="UTF-8"?>
<svg fill="green" width="90px" height="100px" viewBox="0 0 90 100" version="1.1" xmlns="http://www.w3.org/2000/svg" xmlns:xlink="http://www.w3.org/1999/xlink">
    <g  id="Page-1" stroke="none" stroke-width="1" fill="none" fill-rule="evenodd">
        <g id="noun_Electronic-voting_2614780" fill-rule="nonzero" fill="#000000">
            <g id="Group">
                <g transform="translate(14.000000, 77.000000)" id="Shape">
                    <path fill="currentColor" d="M3.2,18.5 C2.8,18.5 2.5,18.3 2.2,18 C0.9,16.1 0.3,13.9 0.3,11.6 C0.3,5.3 5.4,0.2 11.7,0.2 L25.5,0.2 C31.8,0.2 36.9,5.3 36.9,11.6 C36.9,12.2 36.4,12.8 35.7,12.8 C35.1,12.8 34.5,12.3 34.5,11.6 C34.5,6.6 30.4,2.5 25.4,2.5 L11.7,2.5 C6.7,2.5 2.6,6.6 2.6,11.6 C2.6,13.4 3.1,15.2 4.1,16.7 C4.5,17.2 4.3,17.9 3.8,18.3 C3.7,18.4 3.5,18.5 3.2,18.5 Z"></path>
                    <path fill="currentColor" d="M52.3,23 L38.5,23 C32.2,23 27.1,17.9 27.1,11.6 C27.1,11 27.6,10.4 28.3,10.4 C29,10.4 29.5,10.9 29.5,11.6 C29.5,16.6 33.6,20.7 38.6,20.7 L52.4,20.7 C53,20.7 53.6,21.2 53.6,21.9 C53.6,22.6 52.9,23 52.3,23 Z"></path>
                    <path fill="currentColor" d="M61.2,17.8 C61,17.8 60.8,17.8 60.6,17.7 C60,17.4 59.8,16.7 60.2,16.1 C60.9,14.8 61.3,13.2 61.3,11.7 C61.3,6.7 57.2,2.6 52.2,2.6 L38.5,2.6 C37.9,2.6 37.3,2.1 37.3,1.4 C37.3,0.7 37.8,0.2 38.5,0.2 L52.3,0.2 C58.6,0.2 63.7,5.3 63.7,11.6 C63.7,13.5 63.2,15.4 62.3,17.1 C62,17.5 61.6,17.8 61.2,17.8 Z"></path>
                    <path fill="currentColor" d="M52.3,16.4 C51.7,16.4 51.1,15.9 51.1,15.2 C51.1,14.5 51.6,14 52.3,14 C53.7,14 54.8,12.9 54.8,11.5 C54.8,10.1 53.7,9 52.3,9 L43.2,9 C42.6,9 42,8.5 42,7.8 C42,7.2 42.5,6.6 43.2,6.6 L52.3,6.6 C54.9,6.6 57.1,8.7 57.1,11.4 C57.1,14.3 54.9,16.4 52.3,16.4 Z"></path>
                    <path fill="currentColor" d="M20.1,16.4 L11,16.4 C8.4,16.4 6.2,14.3 6.2,11.6 C6.2,9 8.3,6.8 11,6.8 C11.6,6.8 12.2,7.3 12.2,8 C12.2,8.6 11.7,9.2 11,9.2 C9.6,9.2 8.5,10.3 8.5,11.7 C8.5,13.1 9.6,14.2 11,14.2 L20.1,14.2 C20.7,14.2 21.3,14.7 21.3,15.4 C21.3,16.1 20.8,16.4 20.1,16.4 Z"></path>
                </g>
                <path fill="currentColor" d="M67.3,50.2 C66.7,50.2 66.1,49.7 66.1,49 L66.1,2.3 L23.8,2.3 L23.8,49.1 C23.8,49.7 23.3,50.3 22.6,50.3 C22,50.3 21.4,49.8 21.4,49.1 L21.4,0 L68.4,0 L68.4,49.1 C68.5,49.7 68,50.2 67.3,50.2 Z" id="Shape"></path>
                <path fill="currentColor" d="M43.8,33.6 L35.4,26.1 C34.9,25.7 34.9,24.9 35.3,24.5 C35.7,24 36.5,24 36.9,24.4 L43.5,30.3 L54.9,16.3 C55.3,15.8 56,15.7 56.5,16.1 C57,16.5 57.1,17.2 56.7,17.7 L43.8,33.6 Z" id="Shape"></path>
                <path fill="currentColor" d="M85.9,68 L4.1,68 C3.1,68 2.2,67.6 1.6,66.8 C1,66.1 0.7,65.1 0.9,64.2 L5.5,38.2 C5.8,36.7 7.1,35.5 8.7,35.5 L22.6,35.5 C23.2,35.5 23.8,36 23.8,36.7 C23.8,37.4 23.3,37.9 22.6,37.9 L8.7,37.9 C8.3,37.9 7.9,38.2 7.8,38.7 L3.2,64.7 C3.1,65.1 3.3,65.3 3.4,65.5 C3.5,65.6 3.7,65.8 4.1,65.8 L86,65.8 C86.4,65.8 86.6,65.6 86.7,65.5 C86.8,65.4 87,65.1 86.9,64.7 L82.3,38.7 C82.2,38.3 81.8,37.9 81.4,37.9 L67.3,37.9 C66.7,37.9 66.1,37.4 66.1,36.7 C66.1,36 66.6,35.5 67.3,35.5 L81.2,35.5 C82.8,35.5 84.1,36.6 84.4,38.2 L89,64.2 C89.2,65.1 88.9,66.1 88.3,66.8 C87.8,67.6 86.9,68 85.9,68 Z" id="Shape"></path>
                <path fill="currentColor" d="M75.2,57.7 L14.8,57.7 L16.4,45.3 C16.5,44.7 17.1,44.2 17.7,44.3 C18.3,44.4 18.8,45 18.7,45.6 L17.4,55.4 L72.5,55.4 L71.2,45.6 C71.1,45 71.6,44.4 72.2,44.3 C72.8,44.2 73.4,44.7 73.5,45.3 L75.2,57.7 Z" id="Shape"></path>
                <path fill="currentColor" d="M39.9,100 L7.4,100 C3.8,100 0.9,97.1 0.9,93.5 L0.9,65.4 C0.9,64.8 1.4,64.2 2.1,64.2 C2.8,64.2 3.3,64.7 3.3,65.4 L3.3,93.6 C3.3,95.9 5.2,97.7 7.4,97.7 L40,97.7 C40.6,97.7 41.2,98.2 41.2,98.9 C41.2,99.6 40.6,100 39.9,100 Z" id="Shape"></path>
                <path fill="currentColor" d="M89.2,100 L66.3,100 C65.7,100 65.1,99.5 65.1,98.8 C65.1,98.1 65.6,97.6 66.3,97.6 L86.8,97.6 L86.8,65.4 C86.8,64.8 87.3,64.2 88,64.2 C88.6,64.2 89.2,64.7 89.2,65.4 L89.2,100 Z" id="Shape"></path>
            </g>
        </g>
    </g>
</svg>
