<svg width="120" height="51" viewBox="0 0 304 51" fill="#fff" xmlns="http://www.w3.org/2000/svg">
<path d="M1.65 41V5.36H7.59V35.06H24.09V41H1.65ZM27.1025 14.27H32.0525V41H27.1025V14.27ZM27.1025 8.825C27.1025 8.20166 27.3592 7.63333 27.8725 7.12C28.3859 6.60666 28.9542 6.35 29.5775 6.35C30.2009 6.35 30.7692 6.60666 31.2825 7.12C31.7959 7.63333 32.0525 8.20166 32.0525 8.825C32.0525 9.44833 31.7959 10.0167 31.2825 10.53C30.7692 11.0433 30.2009 11.3 29.5775 11.3C28.9542 11.3 28.3859 11.0433 27.8725 10.53C27.3592 10.0167 27.1025 9.44833 27.1025 8.825ZM49.5232 21.695C49.5232 20.8883 49.2665 20.265 48.7532 19.825C48.2399 19.385 47.6715 19.0733 47.0482 18.89C46.3515 18.67 45.5449 18.5417 44.6282 18.505C43.6749 18.5417 42.8499 18.67 42.1532 18.89C41.5299 19.0733 40.9615 19.385 40.4482 19.825C39.9715 20.265 39.7332 20.8883 39.7332 21.695C39.7332 22.575 39.9715 23.2533 40.4482 23.73C40.9615 24.17 41.5299 24.5 42.1532 24.72C42.8499 24.9767 43.6749 25.1233 44.6282 25.16C45.9482 25.16 47.1032 25.2883 48.0932 25.545C49.0832 25.765 49.9449 26.0767 50.6782 26.48C51.4115 26.8833 52.0165 27.3417 52.4932 27.855C53.0065 28.3683 53.4282 28.8817 53.7582 29.395C54.5282 30.605 54.9682 31.9983 55.0782 33.575C54.9682 35.115 54.5282 36.49 53.7582 37.7C53.0982 38.7267 52.0532 39.6617 50.6232 40.505C49.2299 41.3483 47.2315 41.77 44.6282 41.77C42.0249 41.77 40.0082 41.3483 38.5782 40.505C37.1849 39.6617 36.1582 38.7267 35.4982 37.7C34.7282 36.49 34.2882 35.115 34.1782 33.575H39.1282C39.1282 34.4183 39.4032 35.06 39.9532 35.5C40.5399 35.94 41.1815 36.2517 41.8782 36.435C42.6849 36.655 43.6015 36.7833 44.6282 36.82C45.6549 36.7833 46.5715 36.655 47.3782 36.435C48.0749 36.2517 48.6982 35.94 49.2482 35.5C49.8349 35.06 50.1282 34.4183 50.1282 33.575C50.1282 32.7317 49.8349 32.0717 49.2482 31.595C48.6982 31.1183 48.0749 30.77 47.3782 30.55C46.5715 30.2933 45.6549 30.1467 44.6282 30.11C43.3815 30.11 42.2815 30 41.3282 29.78C40.4115 29.5233 39.6049 29.2117 38.9082 28.845C38.2115 28.4417 37.6249 27.9833 37.1482 27.47C36.6715 26.9567 36.2865 26.4433 35.9932 25.93C35.2965 24.72 34.8932 23.3083 34.7832 21.695C34.8932 20.1917 35.2965 18.835 35.9932 17.625C36.2865 17.1117 36.6715 16.6167 37.1482 16.14C37.6249 15.6633 38.2115 15.2417 38.9082 14.875C39.6049 14.4717 40.4115 14.16 41.3282 13.94C42.2815 13.6833 43.3815 13.555 44.6282 13.555C47.0849 13.555 48.9732 13.9767 50.2932 14.82C51.6499 15.6633 52.6399 16.5983 53.2632 17.625C53.9599 18.835 54.3632 20.1917 54.4732 21.695H49.5232ZM63.1168 2.39V24.72L72.5218 14.27H79.2318L67.0768 27.635L79.7818 41H73.0168L63.7768 31.32L63.1168 32.035V41H58.1668V2.39H63.1168ZM89.6607 37.04C89.6607 38.14 89.2757 39.075 88.5057 39.845C87.7357 40.615 86.8007 41 85.7007 41C84.6374 41 83.7024 40.615 82.8957 39.845C82.1257 39.075 81.7407 38.14 81.7407 37.04C81.7407 35.94 82.1257 35.005 82.8957 34.235C83.7024 33.465 84.6374 33.08 85.7007 33.08C86.8007 33.08 87.7357 33.465 88.5057 34.235C89.2757 35.005 89.6607 35.94 89.6607 37.04ZM92.6209 27.635C92.6209 25.6917 92.9875 23.8583 93.7209 22.135C94.4542 20.4117 95.4625 18.9267 96.7459 17.68C98.0292 16.3967 99.5325 15.3883 101.256 14.655C102.979 13.9217 104.813 13.555 106.756 13.555C108.699 13.555 110.533 13.94 112.256 14.71C113.979 15.4433 115.464 16.4517 116.711 17.735C117.994 19.0183 119.003 20.5217 119.736 22.245C120.469 23.9317 120.836 25.7283 120.836 27.635C120.836 29.5783 120.469 31.4117 119.736 33.135C119.003 34.8583 117.994 36.3617 116.711 37.645C115.464 38.9283 113.979 39.9367 112.256 40.67C110.533 41.4033 108.699 41.77 106.756 41.77C104.813 41.77 102.979 41.4033 101.256 40.67C99.5325 39.9367 98.0292 38.9283 96.7459 37.645C95.4625 36.3617 94.4542 34.8583 93.7209 33.135C92.9875 31.4117 92.6209 29.5783 92.6209 27.635ZM97.5709 27.635C97.5709 28.9183 97.8092 30.11 98.2859 31.21C98.7625 32.31 99.4225 33.2817 100.266 34.125C101.109 34.9683 102.081 35.6283 103.181 36.105C104.281 36.5817 105.473 36.82 106.756 36.82C108.003 36.82 109.176 36.5817 110.276 36.105C111.413 35.6283 112.384 34.9683 113.191 34.125C114.034 33.2817 114.694 32.31 115.171 31.21C115.648 30.11 115.886 28.9183 115.886 27.635C115.886 26.3883 115.648 25.215 115.171 24.115C114.694 22.9783 114.034 22.0067 113.191 21.2C112.384 20.3567 111.413 19.6967 110.276 19.22C109.176 18.7433 108.003 18.505 106.756 18.505C105.473 18.505 104.281 18.7433 103.181 19.22C102.081 19.6967 101.109 20.3567 100.266 21.2C99.4225 22.0067 98.7625 22.9783 98.2859 24.115C97.8092 25.215 97.5709 26.3883 97.5709 27.635ZM129.02 2.39V16.91C129.203 16.69 129.552 16.3967 130.065 16.03C130.578 15.6633 131.22 15.2967 131.99 14.93C132.797 14.5633 133.713 14.2517 134.74 13.995C135.767 13.7017 136.922 13.555 138.205 13.555C140.148 13.555 141.982 13.9217 143.705 14.655C145.428 15.3883 146.913 16.3967 148.16 17.68C149.443 18.9633 150.452 20.4667 151.185 22.19C151.918 23.8767 152.285 25.6917 152.285 27.635C152.285 29.5783 151.918 31.4117 151.185 33.135C150.452 34.8583 149.443 36.3617 148.16 37.645C146.913 38.9283 145.428 39.9367 143.705 40.67C141.982 41.4033 140.148 41.77 138.205 41.77C136.922 41.77 135.803 41.66 134.85 41.44C133.897 41.22 133.053 40.945 132.32 40.615C131.623 40.285 131 39.9183 130.45 39.515C129.937 39.1117 129.46 38.7267 129.02 38.36V41H124.07V2.39H129.02ZM147.335 27.635C147.335 26.4983 147.06 25.38 146.51 24.28C145.997 23.18 145.318 22.2083 144.475 21.365C143.632 20.5217 142.66 19.8433 141.56 19.33C140.46 18.78 139.342 18.505 138.205 18.505C137.068 18.505 135.95 18.78 134.85 19.33C133.75 19.8433 132.76 20.5217 131.88 21.365C131.037 22.2083 130.34 23.18 129.79 24.28C129.277 25.38 129.02 26.4983 129.02 27.635C129.02 28.8083 129.277 29.945 129.79 31.045C130.34 32.145 131.037 33.1167 131.88 33.96C132.76 34.8033 133.75 35.5 134.85 36.05C135.95 36.5633 137.068 36.82 138.205 36.82C139.342 36.82 140.46 36.5633 141.56 36.05C142.66 35.5 143.632 34.8033 144.475 33.96C145.318 33.1167 145.997 32.145 146.51 31.045C147.06 29.945 147.335 28.8083 147.335 27.635ZM170.427 21.695C170.427 20.8883 170.17 20.265 169.657 19.825C169.143 19.385 168.575 19.0733 167.952 18.89C167.255 18.67 166.448 18.5417 165.532 18.505C164.578 18.5417 163.753 18.67 163.057 18.89C162.433 19.0733 161.865 19.385 161.352 19.825C160.875 20.265 160.637 20.8883 160.637 21.695C160.637 22.575 160.875 23.2533 161.352 23.73C161.865 24.17 162.433 24.5 163.057 24.72C163.753 24.9767 164.578 25.1233 165.532 25.16C166.852 25.16 168.007 25.2883 168.997 25.545C169.987 25.765 170.848 26.0767 171.582 26.48C172.315 26.8833 172.92 27.3417 173.397 27.855C173.91 28.3683 174.332 28.8817 174.662 29.395C175.432 30.605 175.872 31.9983 175.982 33.575C175.872 35.115 175.432 36.49 174.662 37.7C174.002 38.7267 172.957 39.6617 171.527 40.505C170.133 41.3483 168.135 41.77 165.532 41.77C162.928 41.77 160.912 41.3483 159.482 40.505C158.088 39.6617 157.062 38.7267 156.402 37.7C155.632 36.49 155.192 35.115 155.082 33.575H160.032C160.032 34.4183 160.307 35.06 160.857 35.5C161.443 35.94 162.085 36.2517 162.782 36.435C163.588 36.655 164.505 36.7833 165.532 36.82C166.558 36.7833 167.475 36.655 168.282 36.435C168.978 36.2517 169.602 35.94 170.152 35.5C170.738 35.06 171.032 34.4183 171.032 33.575C171.032 32.7317 170.738 32.0717 170.152 31.595C169.602 31.1183 168.978 30.77 168.282 30.55C167.475 30.2933 166.558 30.1467 165.532 30.11C164.285 30.11 163.185 30 162.232 29.78C161.315 29.5233 160.508 29.2117 159.812 28.845C159.115 28.4417 158.528 27.9833 158.052 27.47C157.575 26.9567 157.19 26.4433 156.897 25.93C156.2 24.72 155.797 23.3083 155.687 21.695C155.797 20.1917 156.2 18.835 156.897 17.625C157.19 17.1117 157.575 16.6167 158.052 16.14C158.528 15.6633 159.115 15.2417 159.812 14.875C160.508 14.4717 161.315 14.16 162.232 13.94C163.185 13.6833 164.285 13.555 165.532 13.555C167.988 13.555 169.877 13.9767 171.197 14.82C172.553 15.6633 173.543 16.5983 174.167 17.625C174.863 18.835 175.267 20.1917 175.377 21.695H170.427ZM205.25 32.585C205.25 33.8683 204.902 35.06 204.205 36.16C203.508 37.26 202.555 38.2317 201.345 39.075C200.172 39.9183 198.778 40.5783 197.165 41.055C195.588 41.5317 193.883 41.77 192.05 41.77C190.107 41.77 188.273 41.4033 186.55 40.67C184.827 39.9367 183.323 38.9283 182.04 37.645C180.757 36.3617 179.748 34.8583 179.015 33.135C178.282 31.4117 177.915 29.5783 177.915 27.635C177.915 25.6917 178.282 23.8583 179.015 22.135C179.748 20.4117 180.757 18.9267 182.04 17.68C183.323 16.3967 184.827 15.3883 186.55 14.655C188.273 13.9217 190.107 13.555 192.05 13.555C193.957 13.555 195.827 13.9217 197.66 14.655C199.493 15.3883 201.088 16.4517 202.445 17.845C203.802 19.2383 204.81 20.98 205.47 23.07C206.167 25.1233 206.332 27.47 205.965 30.11H183.195C183.195 30.77 183.433 31.485 183.91 32.255C184.387 33.025 185.01 33.7583 185.78 34.455C186.587 35.115 187.522 35.6833 188.585 36.16C189.685 36.6 190.84 36.82 192.05 36.82C193.113 36.82 194.103 36.71 195.02 36.49C195.973 36.27 196.798 35.9767 197.495 35.61C198.192 35.2067 198.742 34.7483 199.145 34.235C199.548 33.7217 199.75 33.1717 199.75 32.585H205.25ZM200.85 25.16C200.74 24.5733 200.447 23.9133 199.97 23.18C199.493 22.41 198.87 21.6767 198.1 20.98C197.33 20.2833 196.432 19.6967 195.405 19.22C194.378 18.7433 193.26 18.505 192.05 18.505C190.84 18.505 189.703 18.7433 188.64 19.22C187.613 19.6967 186.715 20.2833 185.945 20.98C185.175 21.6767 184.552 22.41 184.075 23.18C183.598 23.9133 183.305 24.5733 183.195 25.16H200.85ZM214.369 16.47C214.956 15.92 215.708 15.425 216.624 14.985C217.394 14.6183 218.348 14.2883 219.484 13.995C220.621 13.665 221.959 13.5 223.499 13.5V18.45C221.849 18.4867 220.383 18.835 219.099 19.495C218.549 19.7883 217.999 20.155 217.449 20.595C216.899 20.9983 216.404 21.53 215.964 22.19C215.524 22.85 215.158 23.6383 214.864 24.555C214.571 25.435 214.406 26.4617 214.369 27.635V41H209.419V14.27H214.369V16.47ZM248.102 14.27L239.192 41H233.582L224.727 14.27H229.897L236.387 32.86L242.877 14.27H248.102ZM277.867 32.585C277.867 33.8683 277.519 35.06 276.822 36.16C276.126 37.26 275.172 38.2317 273.962 39.075C272.789 39.9183 271.396 40.5783 269.782 41.055C268.206 41.5317 266.501 41.77 264.667 41.77C262.724 41.77 260.891 41.4033 259.167 40.67C257.444 39.9367 255.941 38.9283 254.657 37.645C253.374 36.3617 252.366 34.8583 251.632 33.135C250.899 31.4117 250.532 29.5783 250.532 27.635C250.532 25.6917 250.899 23.8583 251.632 22.135C252.366 20.4117 253.374 18.9267 254.657 17.68C255.941 16.3967 257.444 15.3883 259.167 14.655C260.891 13.9217 262.724 13.555 264.667 13.555C266.574 13.555 268.444 13.9217 270.277 14.655C272.111 15.3883 273.706 16.4517 275.062 17.845C276.419 19.2383 277.427 20.98 278.087 23.07C278.784 25.1233 278.949 27.47 278.582 30.11H255.812C255.812 30.77 256.051 31.485 256.527 32.255C257.004 33.025 257.627 33.7583 258.397 34.455C259.204 35.115 260.139 35.6833 261.202 36.16C262.302 36.6 263.457 36.82 264.667 36.82C265.731 36.82 266.721 36.71 267.637 36.49C268.591 36.27 269.416 35.9767 270.112 35.61C270.809 35.2067 271.359 34.7483 271.762 34.235C272.166 33.7217 272.367 33.1717 272.367 32.585H277.867ZM273.467 25.16C273.357 24.5733 273.064 23.9133 272.587 23.18C272.111 22.41 271.487 21.6767 270.717 20.98C269.947 20.2833 269.049 19.6967 268.022 19.22C266.996 18.7433 265.877 18.505 264.667 18.505C263.457 18.505 262.321 18.7433 261.257 19.22C260.231 19.6967 259.332 20.2833 258.562 20.98C257.792 21.6767 257.169 22.41 256.692 23.18C256.216 23.9133 255.922 24.5733 255.812 25.16H273.467ZM286.987 16.47C287.573 15.92 288.325 15.425 289.242 14.985C290.012 14.6183 290.965 14.2883 292.102 13.995C293.238 13.665 294.577 13.5 296.117 13.5V18.45C294.467 18.4867 293 18.835 291.717 19.495C291.167 19.7883 290.617 20.155 290.067 20.595C289.517 20.9983 289.022 21.53 288.582 22.19C288.142 22.85 287.775 23.6383 287.482 24.555C287.188 25.435 287.023 26.4617 286.987 27.635V41H282.037V14.27H286.987V16.47Z" />
</svg>
