<svg class="planet" xmlns="http://www.w3.org/2000/svg" version="1.1"
     xmlns:xlink="http://www.w3.org/1999/xlink" preserveAspectRatio="none" x="0px" y="0px" width="814px"
     height="814px" viewBox="0 0 814 814">
    <defs>
        <g id="planet_0_Layer0_0_FILL">
            <path fill="#F1BA86" stroke="none" d="
M 69.25 -69.25
Q 40.55 -97.95 0 -97.95 -40.55 -97.95 -69.25 -69.25 -97.95 -40.55 -97.95 0
L 97.95 0
Q 97.95 -40.55 69.25 -69.25 Z"/>
        </g>

        <g id="crater_0_Layer0_0_FILL">
            <path fill="#F1BA86" stroke="none" d="
M 79.8 -114.65
Q 42.35 -128.2 2.9 -130.7 -35.45 -132.75 -72.25 -124 -87.35 -121.05 -101.35 -114.95 -115.75 -108.5 -119 -93.85 -119.85 -89.95 -121.15 -70.5 -122.15 -54.8 -125.6 -47.9 -132.45 -34.25 -139.5 -23.65 -147.15 -12.3 -157.65 -0.6
L 157.65 0
Q 155.55 -11.05 147.3 -18.75 130.55 -34.25 117.7 -52.65 111.15 -61.95 110.35 -73.15 108.1 -104.5 79.8 -114.65
M 78.75 -63.25
Q 68.55 -56 56.05 -55 19.15 -52.1 -18.05 -54.2 -55.25 -56.9 -91.1 -64.35 -103.95 -66.9 -103.05 -80.8 -100.9 -114.65 -63.65 -118.8 -52.6 -119.95 -41.4 -121.1 -3.65 -124.1 33.65 -117.4 59.7 -112.6 84.35 -103.65 104.55 -81.6 78.75 -63.25 Z"/>

            <path fill="#DD9C68" stroke="none" d="
M 56.05 -55
Q 68.55 -56 78.75 -63.25 104.55 -81.6 84.35 -103.65 59.7 -112.6 33.65 -117.4 -3.65 -124.1 -41.4 -121.1 -52.6 -119.95 -63.65 -118.8 -100.9 -114.65 -103.05 -80.8 -103.95 -66.9 -91.1 -64.35 -55.25 -56.9 -18.05 -54.2 19.15 -52.1 56.05 -55 Z"/>
        </g>
    </defs>

    <g transform="matrix( 0.9999847412109375, 0, 0, 0.9999847412109375, 406.85,856.2) ">
        <g transform="matrix( 1, 0, 0, 1, -0.5,-449.25) ">
            <g transform="matrix( 3.849853515625, 0, 0, 3.849853515625, 0.45,0) ">
                <g transform="matrix( 1, 0, 0, 1, 0,0) ">
                    <use xlink:href="#planet_0_Layer0_0_FILL"/>
                </g>
            </g>

            <g transform="matrix( 0.2042236328125, -0.155181884765625, 0.155181884765625, 0.2042236328125, -214.3,-303.15) ">
                <g transform="matrix( 1, 0, 0, 1, 0,0) ">
                    <use xlink:href="#crater_0_Layer0_0_FILL"/>
                </g>
            </g>

            <g transform="matrix( 0.19989013671875, 0.160675048828125, -0.160675048828125, 0.19989013671875, 229.05,-291.55) ">
                <g transform="matrix( 1, 0, 0, 1, 0,0) ">
                    <use xlink:href="#crater_0_Layer0_0_FILL"/>
                </g>
            </g>

            <g transform="matrix( 0.0376739501953125, 0.253662109375, -0.253662109375, 0.0376739501953125, 368.15,-58.25) ">
                <g transform="matrix( 1, 0, 0, 1, 0,0) ">
                    <use xlink:href="#crater_0_Layer0_0_FILL"/>
                </g>
            </g>

            <g transform="matrix( 0.1062469482421875, -0.233428955078125, 0.233428955078125, 0.1062469482421875, -332.1,-166.7) ">
                <g transform="matrix( 1, 0, 0, 1, 0,0) ">
                    <use xlink:href="#crater_0_Layer0_0_FILL"/>
                </g>
            </g>

            <g transform="matrix( 0.2552947998046875, 0.024810791015625, -0.024810791015625, 0.2552947998046875, 34.1,-369.6) ">
                <g transform="matrix( 1, 0, 0, 1, 0,0) ">
                    <use xlink:href="#crater_0_Layer0_0_FILL"/>
                </g>
            </g>

            <g transform="matrix( 0.06866455078125, 0.23602294921875, -0.23602294921875, 0.06866455078125, 285.9,-84.3) ">
                <g transform="matrix( 1, 0, 0, 1, 0,0) ">
                    <use xlink:href="#crater_0_Layer0_0_FILL"/>
                </g>
            </g>

            <g transform="matrix( 0.2120361328125, -0.0352783203125, 0.0352783203125, 0.2120361328125, -49.05,-256.95) ">
                <g transform="matrix( 1, 0, 0, 1, 0,0) ">
                    <use xlink:href="#crater_0_Layer0_0_FILL"/>
                </g>
            </g>
        </g>

        <g transform="matrix( -1, 0, 0, -1, 0.5,-450.25) ">
            <g transform="matrix( 3.849853515625, 0, 0, 3.849853515625, 0.45,0) ">
                <g transform="matrix( 1, 0, 0, 1, 0,0) ">
                    <use xlink:href="#planet_0_Layer0_0_FILL"/>
                </g>
            </g>

            <g transform="matrix( 0.2042236328125, -0.155181884765625, 0.155181884765625, 0.2042236328125, -214.3,-303.15) ">
                <g transform="matrix( 1, 0, 0, 1, 0,0) ">
                    <use xlink:href="#crater_0_Layer0_0_FILL"/>
                </g>
            </g>

            <g transform="matrix( 0.19989013671875, 0.160675048828125, -0.160675048828125, 0.19989013671875, 229.05,-291.55) ">
                <g transform="matrix( 1, 0, 0, 1, 0,0) ">
                    <use xlink:href="#crater_0_Layer0_0_FILL"/>
                </g>
            </g>

            <g transform="matrix( 0.0376739501953125, 0.253662109375, -0.253662109375, 0.0376739501953125, 368.15,-58.25) ">
                <g transform="matrix( 1, 0, 0, 1, 0,0) ">
                    <use xlink:href="#crater_0_Layer0_0_FILL"/>
                </g>
            </g>

            <g transform="matrix( 0.1062469482421875, -0.233428955078125, 0.233428955078125, 0.1062469482421875, -332.1,-166.7) ">
                <g transform="matrix( 1, 0, 0, 1, 0,0) ">
                    <use xlink:href="#crater_0_Layer0_0_FILL"/>
                </g>
            </g>

            <g transform="matrix( 0.2552947998046875, 0.024810791015625, -0.024810791015625, 0.2552947998046875, 34.1,-369.6) ">
                <g transform="matrix( 1, 0, 0, 1, 0,0) ">
                    <use xlink:href="#crater_0_Layer0_0_FILL"/>
                </g>
            </g>

            <g transform="matrix( 0.06866455078125, 0.23602294921875, -0.23602294921875, 0.06866455078125, 285.9,-84.3) ">
                <g transform="matrix( 1, 0, 0, 1, 0,0) ">
                    <use xlink:href="#crater_0_Layer0_0_FILL"/>
                </g>
            </g>

            <g transform="matrix( 0.2120361328125, -0.0352783203125, 0.0352783203125, 0.2120361328125, -49.05,-256.95) ">
                <g transform="matrix( 1, 0, 0, 1, 0,0) ">
                    <use xlink:href="#crater_0_Layer0_0_FILL"/>
                </g>
            </g>
        </g>
    </g>
</svg>
