<svg id="euwrC6bAlit1" xmlns="http://www.w3.org/2000/svg" xmlns:xlink="http://www.w3.org/1999/xlink" viewBox="0 0 74 80" fill="#ffffff" shape-rendering="geometricPrecision" text-rendering="geometricPrecision"><g id="euwrC6bAlit2"><g id="euwrC6bAlit3" transform="matrix(1 0 0 1 -1 0)"><g id="euwrC6bAlit4" transform="matrix(1 0 0 1 0.64660000000000 0.34177000000000)"><path id="euwrC6bAlit5" d="M34.460000,38.868000L33.781000,37.691000C33.703000,37.546000,33.641000,37.397000,33.609000,37.234000C33.519000,36.781000,33.647000,36.300000,33.952000,35.952000C34.062000,35.828000,34.190000,35.730000,34.330000,35.642000L40.212000,32.247000C40.329000,32.184000,40.446000,32.131000,40.574000,32.097000C40.670000,32.071000,40.765000,32.058000,40.864000,32.049000C40.962000,32.046000,40.962000,32.046000,41.060000,32.049000C41.159000,32.058000,41.254000,32.071000,41.350000,32.097000C41.604000,32.165000,41.837000,32.299000,42.023000,32.485000C42.116000,32.579000,42.191000,32.683000,42.261000,32.796000L49.727000,45.727000C49.805000,45.873000,49.867000,46.021000,49.899000,46.184000C49.989000,46.638000,49.861000,47.118000,49.556000,47.466000C49.446000,47.591000,49.318000,47.689000,49.178000,47.776000L43.296000,51.172000C43.150000,51.250000,43.002000,51.312000,42.839000,51.344000C42.385000,51.434000,41.905000,51.306000,41.557000,51.001000C41.432000,50.891000,41.334000,50.763000,41.247000,50.623000L40.568000,49.447000L30.925000,55.014000C31.381000,55.796000,31.828000,56.583000,32.266000,57.375000C32.335000,57.513000,32.387000,57.656000,32.415000,57.808000C32.490000,58.226000,32.382000,58.665000,32.120000,58.999000C32.013000,59.136000,31.883000,59.249000,31.738000,59.344000C31.354000,59.576000,30.968000,59.805000,30.581000,60.032000L40.856000,76.685000C40.901000,76.762000,40.914000,76.780000,40.950000,76.862000C41.018000,77.015000,41.060000,77.178000,41.075000,77.345000C41.092000,77.545000,41.068000,77.748000,41.006000,77.939000C40.954000,78.097000,40.875000,78.247000,40.774000,78.380000C40.693000,78.487000,40.598000,78.582000,40.491000,78.664000C40.061000,78.993000,39.469000,79.064000,38.973000,78.844000C38.790000,78.763000,38.623000,78.645000,38.486000,78.499000C38.416000,78.425000,38.359000,78.344000,38.303000,78.260000L31.408000,67.086000L32.423000,73.952000C32.432000,74.032000,32.436000,74.052000,32.438000,74.133000C32.443000,74.314000,32.414000,74.496000,32.355000,74.667000C32.295000,74.838000,32.204000,74.998000,32.087000,75.137000C31.990000,75.253000,31.875000,75.353000,31.748000,75.435000C31.620000,75.516000,31.481000,75.578000,31.335000,75.618000C30.803000,75.764000,30.219000,75.599000,29.842000,75.195000C29.698000,75.040000,29.587000,74.855000,29.519000,74.655000C29.489000,74.568000,29.471000,74.481000,29.455000,74.391000L28.497000,67.906000L26.260000,77.065000L26.233000,77.161000C26.199000,77.257000,26.163000,77.348000,26.114000,77.437000C26.016000,77.613000,25.884000,77.768000,25.725000,77.891000C25.594000,77.994000,25.445000,78.075000,25.287000,78.129000C25.160000,78.172000,25.028000,78.198000,24.894000,78.206000C24.388000,78.237000,23.889000,78.002000,23.590000,77.592000C23.472000,77.430000,23.387000,77.244000,23.341000,77.048000C23.304000,76.886000,23.293000,76.717000,23.311000,76.550000C23.320000,76.462000,23.327000,76.440000,23.345000,76.353000L26.968000,61.525000C26.784000,61.465000,26.611000,61.371000,26.462000,61.245000C26.344000,61.145000,26.247000,61.028000,26.162000,60.899000C25.695000,60.124000,25.237000,59.343000,24.788000,58.557000L13.846000,64.875000C13.805000,64.896000,13.765000,64.919000,13.723000,64.938000C13.597000,64.996000,13.463000,65.037000,13.326000,65.058000C12.865000,65.130000,12.386000,64.977000,12.052000,64.653000C11.985000,64.588000,11.925000,64.518000,11.871000,64.442000C11.845000,64.405000,11.822000,64.365000,11.797000,64.326000L11.500000,63.811000C9.547000,64.963000,7.561000,66.057000,5.598000,67.190000C5.463000,67.264000,5.324000,67.322000,5.174000,67.355000C4.751000,67.450000,4.297000,67.353000,3.950000,67.093000C3.806000,66.985000,3.689000,66.854000,3.588000,66.706000C2.709000,65.269000,1.902000,63.789000,1.059000,62.330000C0.986000,62.196000,0.928000,62.057000,0.894000,61.907000C0.800000,61.483000,0.897000,61.030000,1.157000,60.682000C1.265000,60.538000,1.396000,60.422000,1.544000,60.321000C3.499000,59.125000,5.503000,58.009000,7.496000,56.876000L7.189000,56.345000C7.168000,56.304000,7.145000,56.264000,7.125000,56.222000C7.087000,56.138000,7.056000,56.050000,7.033000,55.961000C6.920000,55.508000,7.027000,55.018000,7.319000,54.654000C7.406000,54.546000,7.508000,54.451000,7.621000,54.371000C7.659000,54.344000,7.699000,54.321000,7.738000,54.296000L34.460000,38.868000Z" fill-rule="evenodd" stroke="none" stroke-width="1"/><polygon id="euwrC6bAlit6" points="8.998000,59.479000 4.408000,62.129000 5.397000,63.842000 9.987000,61.192000" fill-rule="evenodd" stroke="none" stroke-width="1"/><path id="euwrC6bAlit7" d="M10.537000,56.144000L10.848000,56.682000C11.711000,58.098000,12.506000,59.555000,13.335000,60.991000L13.645000,61.527000L19.783000,57.983000C18.730000,56.199000,17.718000,54.391000,16.691000,52.591000L10.537000,56.144000Z" fill-rule="evenodd" stroke="none" stroke-width="1"/><polygon id="euwrC6bAlit8" points="28.311000,56.523000 27.402000,57.048000 27.980000,58.051000 28.890000,57.526000" fill-rule="evenodd" stroke="none" stroke-width="1"/><path id="euwrC6bAlit9" d="M27.141000,46.557000L19.314000,51.077000C20.366000,52.861000,21.379000,54.669000,22.405000,56.469000L24.604000,55.199000C25.760000,54.503000,26.928000,53.829000,28.109000,53.176000L30.233000,51.950000C29.180000,50.165000,28.167000,48.357000,27.141000,46.557000Z" fill-rule="evenodd" stroke="none" stroke-width="1"/><path id="euwrC6bAlit10" d="M36.115000,41.733000L35.960000,41.466000L29.763000,45.044000C30.816000,46.828000,31.829000,48.636000,32.855000,50.436000L39.068000,46.849000L36.115000,41.733000Z" fill-rule="evenodd" stroke="none" stroke-width="1"/><path id="euwrC6bAlit11" d="M38.713000,40.233000L43.095000,47.824000L46.379000,45.928000L40.413000,35.595000C39.318000,36.227000,38.224000,36.859000,37.129000,37.491000L38.713000,40.233000Z" fill-rule="evenodd" stroke="none" stroke-width="1"/><path id="euwrC6bAlit12" d="M67.631000,37.699000C67.637000,37.122000,67.645000,36.545000,67.657000,35.969000C67.667000,35.805000,67.697000,35.645000,67.756000,35.491000C67.903000,35.108000,68.209000,34.796000,68.589000,34.641000C68.742000,34.579000,68.900000,34.546000,69.064000,34.533000C69.126000,34.530000,69.186000,34.530000,69.248000,34.533000C69.411000,34.546000,69.570000,34.579000,69.723000,34.641000C70.103000,34.796000,70.408000,35.108000,70.556000,35.491000C70.615000,35.645000,70.645000,35.805000,70.655000,35.969000C70.666000,36.545000,70.675000,37.122000,70.681000,37.699000C71.257000,37.704000,71.834000,37.713000,72.410000,37.724000C72.636000,37.738000,72.854000,37.793000,73.055000,37.899000C73.217000,37.986000,73.363000,38.102000,73.483000,38.241000C73.603000,38.380000,73.698000,38.541000,73.760000,38.713000C73.950000,39.240000,73.825000,39.843000,73.442000,40.251000C73.344000,40.355000,73.231000,40.445000,73.108000,40.517000C72.894000,40.643000,72.657000,40.707000,72.410000,40.722000C71.834000,40.734000,71.257000,40.742000,70.681000,40.748000C70.675000,41.325000,70.666000,41.901000,70.655000,42.478000C70.640000,42.724000,70.575000,42.961000,70.450000,43.175000C70.378000,43.299000,70.288000,43.411000,70.184000,43.509000C69.776000,43.893000,69.172000,44.018000,68.646000,43.827000C68.473000,43.765000,68.312000,43.671000,68.174000,43.550000C68.035000,43.430000,67.919000,43.284000,67.832000,43.122000C67.725000,42.921000,67.671000,42.704000,67.657000,42.478000C67.645000,41.901000,67.637000,41.325000,67.631000,40.748000C67.055000,40.742000,66.478000,40.734000,65.901000,40.722000C65.675000,40.708000,65.458000,40.654000,65.257000,40.547000C65.095000,40.461000,64.949000,40.344000,64.829000,40.206000C64.709000,40.067000,64.614000,39.906000,64.552000,39.733000C64.362000,39.207000,64.487000,38.603000,64.870000,38.196000C64.968000,38.091000,65.080000,38.002000,65.204000,37.929000C65.418000,37.804000,65.655000,37.740000,65.901000,37.724000C66.478000,37.713000,67.055000,37.704000,67.631000,37.699000Z" opacity="0" fill-rule="evenodd" stroke="none" stroke-width="1"/><path id="euwrC6bAlit13" d="M61.365000,9.194000C61.806000,9.202000,62.244000,9.235000,62.680000,9.302000C63.562000,9.437000,64.425000,9.699000,65.234000,10.077000C67.162000,10.977000,68.756000,12.534000,69.703000,14.439000C70.100000,15.236000,70.382000,16.090000,70.538000,16.966000C70.715000,17.951000,70.733000,18.963000,70.594000,19.954000C70.460000,20.915000,70.175000,21.854000,69.754000,22.729000C69.260000,23.753000,68.580000,24.685000,67.757000,25.469000C66.905000,26.281000,65.902000,26.933000,64.812000,27.379000C63.682000,27.841000,62.465000,28.078000,61.244000,28.078000C60.023000,28.078000,58.805000,27.841000,57.675000,27.379000C56.586000,26.933000,55.582000,26.281000,54.730000,25.469000C53.908000,24.685000,53.228000,23.753000,52.734000,22.729000C52.313000,21.854000,52.028000,20.915000,51.893000,19.954000C51.755000,18.963000,51.773000,17.951000,51.949000,16.966000C52.106000,16.090000,52.388000,15.236000,52.785000,14.439000C53.732000,12.534000,55.326000,10.977000,57.254000,10.077000C58.063000,9.699000,58.926000,9.437000,59.808000,9.302000C60.244000,9.235000,60.682000,9.202000,61.122000,9.194000C61.244000,9.193000,61.243000,9.193000,61.365000,9.194000Z" transform="matrix(1 0 0 1 -0.00006889500001 0)" fill-rule="evenodd" stroke="none" stroke-width="1"/><path id="euwrC6bAlit14" d="M61.160000,12.194000C60.859000,12.200000,60.560000,12.222000,60.262000,12.268000C59.661000,12.359000,59.074000,12.537000,58.524000,12.795000C57.255000,13.388000,56.196000,14.397000,55.542000,15.636000C55.260000,16.170000,55.054000,16.745000,54.933000,17.337000C54.785000,18.059000,54.762000,18.807000,54.864000,19.537000C54.952000,20.166000,55.135000,20.780000,55.403000,21.355000C55.732000,22.059000,56.189000,22.701000,56.745000,23.244000C57.320000,23.805000,57.998000,24.258000,58.738000,24.572000C59.503000,24.895000,60.330000,25.066000,61.160000,25.077000C61.994000,25.088000,62.828000,24.937000,63.604000,24.631000C64.352000,24.336000,65.042000,23.899000,65.631000,23.351000C66.199000,22.822000,66.671000,22.191000,67.017000,21.496000C67.311000,20.905000,67.512000,20.270000,67.612000,19.617000C67.719000,18.915000,67.710000,18.194000,67.585000,17.494000C67.479000,16.898000,67.287000,16.317000,67.017000,15.775000C66.393000,14.521000,65.359000,13.486000,64.104000,12.862000C63.562000,12.593000,62.981000,12.401000,62.385000,12.294000C62.090000,12.241000,61.793000,12.211000,61.494000,12.198000C61.382000,12.194000,61.272000,12.193000,61.160000,12.194000Z" transform="matrix(0.78000000000000 0 0 0.78000000000000 13.47363624572754 4.09983201980591)" fill-rule="evenodd" stroke="none" stroke-width="1"/><path id="euwrC6bAlit15" d="M20.084000,13.795000C20.090000,13.218000,20.099000,12.642000,20.110000,12.065000C20.120000,11.901000,20.150000,11.742000,20.209000,11.588000C20.357000,11.205000,20.662000,10.893000,21.042000,10.738000C21.195000,10.675000,21.354000,10.643000,21.517000,10.629000C21.579000,10.627000,21.639000,10.627000,21.701000,10.629000C21.865000,10.643000,22.024000,10.675000,22.176000,10.738000C22.556000,10.893000,22.862000,11.205000,23.009000,11.588000C23.068000,11.742000,23.098000,11.901000,23.108000,12.065000C23.120000,12.642000,23.128000,13.218000,23.134000,13.795000C23.710000,13.801000,24.287000,13.809000,24.864000,13.821000C25.110000,13.836000,25.347000,13.900000,25.561000,14.026000C25.685000,14.098000,25.797000,14.188000,25.895000,14.292000C26.278000,14.700000,26.403000,15.303000,26.213000,15.830000C26.151000,16.002000,26.056000,16.163000,25.936000,16.302000C25.816000,16.441000,25.670000,16.557000,25.508000,16.644000C25.307000,16.751000,25.090000,16.805000,24.864000,16.819000C24.287000,16.830000,23.710000,16.839000,23.134000,16.845000C23.128000,17.421000,23.120000,17.998000,23.108000,18.574000C23.094000,18.800000,23.040000,19.018000,22.933000,19.219000C22.847000,19.381000,22.730000,19.527000,22.591000,19.647000C22.453000,19.767000,22.292000,19.862000,22.119000,19.924000C21.985000,19.973000,21.843000,20.002000,21.701000,20.010000C21.142000,20.045000,20.598000,19.755000,20.315000,19.272000C20.190000,19.058000,20.125000,18.821000,20.110000,18.574000C20.099000,17.998000,20.090000,17.421000,20.084000,16.845000C19.508000,16.839000,18.931000,16.830000,18.355000,16.819000C18.129000,16.805000,17.911000,16.751000,17.710000,16.644000C17.548000,16.557000,17.402000,16.441000,17.282000,16.302000C17.162000,16.163000,17.067000,16.002000,17.005000,15.830000C16.956000,15.695000,16.927000,15.554000,16.919000,15.412000C16.884000,14.853000,17.174000,14.309000,17.657000,14.026000C17.871000,13.900000,18.108000,13.836000,18.355000,13.821000C18.931000,13.809000,19.508000,13.801000,20.084000,13.795000Z" fill-rule="evenodd" stroke="none" stroke-width="1"/><path id="euwrC6bAlit16" d="M37.026723,21.513250C37.032723,20.936250,37.041723,20.360250,37.052723,19.783250C37.062723,19.619250,37.092723,19.460250,37.151723,19.306250C37.299723,18.923250,37.604723,18.611250,37.984723,18.456250C38.137723,18.393250,38.296723,18.361250,38.459723,18.347250C38.521723,18.345250,38.581723,18.345250,38.643723,18.347250C38.807723,18.361250,38.966723,18.393250,39.118723,18.456250C39.498723,18.611250,39.804723,18.923250,39.951723,19.306250C40.010723,19.460250,40.040723,19.619250,40.050723,19.783250C40.062723,20.360250,40.070723,20.936250,40.076723,21.513250C40.652723,21.519250,41.229723,21.527250,41.806723,21.539250C42.052723,21.554250,42.289723,21.618250,42.503723,21.744250C42.627723,21.816250,42.739723,21.906250,42.837723,22.010250C43.220723,22.418250,43.345723,23.021250,43.155723,23.548250C43.093723,23.720250,42.998723,23.881250,42.878723,24.020250C42.758723,24.159250,42.612723,24.275250,42.450723,24.362250C42.249723,24.469250,42.032723,24.523250,41.806723,24.537250C41.229723,24.548250,40.652723,24.557250,40.076723,24.563250C40.070723,25.139250,40.062723,25.716250,40.050723,26.292250C40.036723,26.518250,39.982723,26.736250,39.875723,26.937250C39.789723,27.099250,39.672723,27.245250,39.533723,27.365250C39.395723,27.485250,39.234723,27.580250,39.061723,27.642250C38.927723,27.691250,38.785723,27.720250,38.643723,27.728250C38.084723,27.763250,37.540723,27.473250,37.257723,26.990250C37.132723,26.776250,37.067723,26.539250,37.052723,26.292250C37.041723,25.716250,37.032723,25.139250,37.026723,24.563250C36.450723,24.557250,35.873723,24.548250,35.297723,24.537250C35.071723,24.523250,34.853723,24.469250,34.652723,24.362250C34.490723,24.275250,34.344723,24.159250,34.224723,24.020250C34.104723,23.881250,34.009723,23.720250,33.947723,23.548250C33.898723,23.413250,33.869723,23.272250,33.861723,23.130250C33.826723,22.571250,34.116723,22.027250,34.599723,21.744250C34.813723,21.618250,35.050723,21.554250,35.297723,21.539250C35.873723,21.527250,36.450723,21.519250,37.026723,21.513250Z" opacity="0" fill-rule="evenodd" stroke="none" stroke-width="1"/><path id="euwrC6bAlit17" d="M61.026723,56.525826C61.032723,55.948826,61.041723,55.372826,61.052723,54.795826C61.062723,54.631826,61.092723,54.472826,61.151723,54.318826C61.299723,53.935826,61.604723,53.623826,61.984723,53.468826C62.137723,53.405826,62.296723,53.373826,62.459723,53.359826C62.521723,53.357826,62.581723,53.357826,62.643723,53.359826C62.807723,53.373826,62.966723,53.405826,63.118723,53.468826C63.498723,53.623826,63.804723,53.935826,63.951723,54.318826C64.010723,54.472826,64.040723,54.631826,64.050723,54.795826C64.062723,55.372826,64.070723,55.948826,64.076723,56.525826C64.652723,56.531826,65.229723,56.539826,65.806723,56.551826C66.052723,56.566826,66.289723,56.630826,66.503723,56.756826C66.627723,56.828826,66.739723,56.918826,66.837723,57.022826C67.220723,57.430826,67.345723,58.033826,67.155723,58.560826C67.093723,58.732826,66.998723,58.893826,66.878723,59.032826C66.758723,59.171826,66.612723,59.287826,66.450723,59.374826C66.249723,59.481826,66.032723,59.535826,65.806723,59.549826C65.229723,59.560826,64.652723,59.569826,64.076723,59.575826C64.070723,60.151826,64.062723,60.728826,64.050723,61.304826C64.036723,61.530826,63.982723,61.748826,63.875723,61.949826C63.789723,62.111826,63.672723,62.257826,63.533723,62.377826C63.395723,62.497826,63.234723,62.592826,63.061723,62.654826C62.927723,62.703826,62.785723,62.732826,62.643723,62.740826C62.084723,62.775826,61.540723,62.485826,61.257723,62.002826C61.132723,61.788826,61.067723,61.551826,61.052723,61.304826C61.041723,60.728826,61.032723,60.151826,61.026723,59.575826C60.450723,59.569826,59.873723,59.560826,59.297723,59.549826C59.071723,59.535826,58.853723,59.481826,58.652723,59.374826C58.490723,59.287826,58.344723,59.171826,58.224723,59.032826C58.104723,58.893826,58.009723,58.732826,57.947723,58.560826C57.898723,58.425826,57.869723,58.284826,57.861723,58.142826C57.826723,57.583826,58.116723,57.039826,58.599723,56.756826C58.813723,56.630826,59.050723,56.566826,59.297723,56.551826C59.873723,56.539826,60.450723,56.531826,61.026723,56.525826Z" fill-rule="evenodd" stroke="none" stroke-width="1"/><path id="euwrC6bAlit18" d="M42.159000,3.514000C42.164000,2.937000,42.173000,2.360000,42.184000,1.784000C42.194000,1.620000,42.224000,1.460000,42.283000,1.307000C42.431000,0.923000,42.736000,0.612000,43.116000,0.456000C43.269000,0.394000,43.428000,0.361000,43.591000,0.348000C43.653000,0.345000,43.713000,0.345000,43.775000,0.348000C43.939000,0.361000,44.098000,0.394000,44.250000,0.456000C44.630000,0.612000,44.936000,0.923000,45.083000,1.307000C45.142000,1.460000,45.172000,1.620000,45.182000,1.784000C45.194000,2.360000,45.202000,2.937000,45.208000,3.514000C45.785000,3.519000,46.361000,3.528000,46.938000,3.540000C47.184000,3.555000,47.421000,3.619000,47.635000,3.745000C47.759000,3.817000,47.871000,3.907000,47.969000,4.011000C48.353000,4.418000,48.477000,5.022000,48.287000,5.548000C48.225000,5.721000,48.131000,5.882000,48.010000,6.021000C47.890000,6.160000,47.744000,6.276000,47.582000,6.362000C47.381000,6.469000,47.164000,6.523000,46.938000,6.537000C46.361000,6.549000,45.785000,6.558000,45.208000,6.563000C45.202000,7.140000,45.194000,7.716000,45.182000,8.293000C45.168000,8.519000,45.114000,8.737000,45.007000,8.937000C44.921000,9.099000,44.804000,9.245000,44.665000,9.365000C44.527000,9.486000,44.366000,9.580000,44.193000,9.643000C43.667000,9.833000,43.063000,9.708000,42.655000,9.324000C42.551000,9.227000,42.462000,9.114000,42.389000,8.991000C42.264000,8.777000,42.200000,8.540000,42.184000,8.293000C42.173000,7.716000,42.164000,7.140000,42.159000,6.563000C41.582000,6.558000,41.005000,6.549000,40.429000,6.537000C40.182000,6.522000,39.945000,6.458000,39.731000,6.332000C39.248000,6.049000,38.958000,5.505000,38.993000,4.947000C39.001000,4.804000,39.031000,4.663000,39.079000,4.529000C39.142000,4.356000,39.236000,4.195000,39.356000,4.056000C39.476000,3.917000,39.622000,3.801000,39.784000,3.715000C39.985000,3.608000,40.203000,3.554000,40.429000,3.540000C41.005000,3.528000,41.582000,3.519000,42.159000,3.514000Z" fill-rule="evenodd" stroke="none" stroke-width="1"/></g></g></g><script><![CDATA[!function(t,n){"object"==typeof exports&&"undefined"!=typeof module?module.exports=n():"function"==typeof define&&define.amd?define(n):(t="undefined"!=typeof globalThis?globalThis:t||self).__SVGATOR_PLAYER__=n()}(this,(function(){"use strict";function t(n){return(t="function"==typeof Symbol&&"symbol"==typeof Symbol.iterator?function(t){return typeof t}:function(t){return t&&"function"==typeof Symbol&&t.constructor===Symbol&&t!==Symbol.prototype?"symbol":typeof t})(n)}function n(t,n){if(!(t instanceof n))throw new TypeError("Cannot call a class as a function")}function r(t,n){for(var r=0;r<n.length;r++){var e=n[r];e.enumerable=e.enumerable||!1,e.configurable=!0,"value"in e&&(e.writable=!0),Object.defineProperty(t,e.key,e)}}function e(t,n,e){return n&&r(t.prototype,n),e&&r(t,e),t}function i(t){return(i=Object.setPrototypeOf?Object.getPrototypeOf:function(t){return t.__proto__||Object.getPrototypeOf(t)})(t)}function o(t,n){return(o=Object.setPrototypeOf||function(t,n){return t.__proto__=n,t})(t,n)}function u(t,n){return!n||"object"!=typeof n&&"function"!=typeof n?function(t){if(void 0===t)throw new ReferenceError("this hasn't been initialised - super() hasn't been called");return t}(t):n}function a(t){var n=function(){if("undefined"==typeof Reflect||!Reflect.construct)return!1;if(Reflect.construct.sham)return!1;if("function"==typeof Proxy)return!0;try{return Boolean.prototype.valueOf.call(Reflect.construct(Boolean,[],(function(){}))),!0}catch(t){return!1}}();return function(){var r,e=i(t);if(n){var o=i(this).constructor;r=Reflect.construct(e,arguments,o)}else r=e.apply(this,arguments);return u(this,r)}}function l(t,n,r){return(l="undefined"!=typeof Reflect&&Reflect.get?Reflect.get:function(t,n,r){var e=function(t,n){for(;!Object.prototype.hasOwnProperty.call(t,n)&&null!==(t=i(t)););return t}(t,n);if(e){var o=Object.getOwnPropertyDescriptor(e,n);return o.get?o.get.call(r):o.value}})(t,n,r||t)}var f=Math.abs;function s(t){return t}function c(t,n,r){var e=1-r;return 3*r*e*(t*e+n*r)+r*r*r}function h(){var t=arguments.length>0&&void 0!==arguments[0]?arguments[0]:0,n=arguments.length>1&&void 0!==arguments[1]?arguments[1]:0,r=arguments.length>2&&void 0!==arguments[2]?arguments[2]:1,e=arguments.length>3&&void 0!==arguments[3]?arguments[3]:1;return t<0||t>1||r<0||r>1?null:f(t-n)<=1e-5&&f(r-e)<=1e-5?s:function(i){if(i<=0)return t>0?i*n/t:0===n&&r>0?i*e/r:0;if(i>=1)return r<1?1+(i-1)*(e-1)/(r-1):1===r&&t<1?1+(i-1)*(n-1)/(t-1):1;for(var o,u=0,a=1;u<a;){var l=c(t,r,o=(u+a)/2);if(f(i-l)<1e-5)break;l<i?u=o:a=o}return c(n,e,o)}}function v(){return 1}function y(t){return 1===t?1:0}function d(){var t=arguments.length>0&&void 0!==arguments[0]?arguments[0]:1,n=arguments.length>1&&void 0!==arguments[1]?arguments[1]:0;if(1===t){if(0===n)return y;if(1===n)return v}var r=1/t;return function(t){return t>=1?1:(t+=n*r)-t%r}}function g(t){var n=arguments.length>1&&void 0!==arguments[1]?arguments[1]:2;if(Number.isInteger(t))return t;var r=Math.pow(10,n);return Math.round(t*r)/r}var p=Math.PI/180;function m(t,n,r){return t>=.5?r:n}function b(t,n,r){return 0===t||n===r?n:t*(r-n)+n}function w(t,n,r){var e=b(t,n,r);return e<=0?0:e}function x(t,n,r){return 0===t?n:1===t?r:{x:b(t,n.x,r.x),y:b(t,n.y,r.y)}}function k(t,n,r){var e=function(t,n,r){return Math.round(b(t,n,r))}(t,n,r);return e<=0?0:e>=255?255:e}function A(t,n,r){return 0===t?n:1===t?r:{r:k(t,n.r,r.r),g:k(t,n.g,r.g),b:k(t,n.b,r.b),a:b(t,null==n.a?1:n.a,null==r.a?1:r.a)}}function _(t,n,r){if(0===t)return n;if(1===t)return r;var e=n.length;if(e!==r.length)return m(t,n,r);for(var i=[],o=0;o<e;o++)i.push(A(t,n[o],r[o]));return i}function S(t,n){for(var r=[],e=0;e<t;e++)r.push(n);return r}function O(t,n){if(--n<=0)return t;var r=(t=Object.assign([],t)).length;do{for(var e=0;e<r;e++)t.push(t[e])}while(--n>0);return t}var M,j=function(){function t(r){n(this,t),this.list=r,this.length=r.length}return e(t,[{key:"setAttribute",value:function(t,n){for(var r=this.list,e=0;e<this.length;e++)r[e].setAttribute(t,n)}},{key:"removeAttribute",value:function(t){for(var n=this.list,r=0;r<this.length;r++)n[r].removeAttribute(t)}},{key:"style",value:function(t,n){for(var r=this.list,e=0;e<this.length;e++)r[e].style[t]=n}}]),t}(),F=/-./g,P=function(t,n){return n.toUpperCase()};function B(t){return"function"==typeof t?t:m}function I(t){return t?"function"==typeof t?t:Array.isArray(t)?function(t){var n=arguments.length>1&&void 0!==arguments[1]?arguments[1]:s;if(!Array.isArray(t))return n;switch(t.length){case 1:return d(t[0])||n;case 2:return d(t[0],t[1])||n;case 4:return h(t[0],t[1],t[2],t[3])||n}return n}(t,null):function(t,n){var r=arguments.length>2&&void 0!==arguments[2]?arguments[2]:s;switch(t){case"linear":return s;case"steps":return d(n.steps||1,n.jump||0)||r;case"bezier":case"cubic-bezier":return h(n.x1||0,n.y1||0,n.x2||0,n.y2||0)||r}return r}(t.type,t.value,null):null}function R(t,n,r){var e=arguments.length>3&&void 0!==arguments[3]&&arguments[3],i=n.length-1;if(t<=n[0].t)return e?[0,0,n[0].v]:n[0].v;if(t>=n[i].t)return e?[i,1,n[i].v]:n[i].v;var o,u=n[0],a=null;for(o=1;o<=i;o++){if(!(t>n[o].t)){a=n[o];break}u=n[o]}return null==a?e?[i,1,n[i].v]:n[i].v:u.t===a.t?e?[o,1,a.v]:a.v:(t=(t-u.t)/(a.t-u.t),u.e&&(t=u.e(t)),e?[o,t,r(t,u.v,a.v)]:r(t,u.v,a.v))}function q(t,n){var r=arguments.length>2&&void 0!==arguments[2]?arguments[2]:null;return t&&t.length?"function"!=typeof n?null:("function"!=typeof r&&(r=null),function(e){var i=R(e,t,n);return null!=i&&r&&(i=r(i)),i}):null}function E(t,n){return t.t-n.t}function T(n,r,e,i,o){var u,a="@"===e[0],l="#"===e[0],f=M[e],s=m;switch(a?(u=e.substr(1),e=u.replace(F,P)):l&&(e=e.substr(1)),t(f)){case"function":if(s=f(i,o,R,I,e,a,r,n),l)return s;break;case"string":s=q(i,B(f));break;case"object":if((s=q(i,B(f.i),f.f))&&"function"==typeof f.u)return f.u(r,s,e,a,n)}return s?function(t,n,r){var e=arguments.length>3&&void 0!==arguments[3]&&arguments[3];if(e)return t instanceof j?function(e){return t.style(n,r(e))}:function(e){return t.style[n]=r(e)};if(Array.isArray(n)){var i=n.length;return function(e){var o=r(e);if(null==o)for(var u=0;u<i;u++)t[u].removeAttribute(n);else for(var a=0;a<i;a++)t[a].setAttribute(n,o)}}return function(e){var i=r(e);null==i?t.removeAttribute(n):t.setAttribute(n,i)}}(r,e,s,a):null}function N(n,r,e,i){if(!i||"object"!==t(i))return null;var o=null,u=null;return Array.isArray(i)?u=function(t){if(!t||!t.length)return null;for(var n=0;n<t.length;n++)t[n].e&&(t[n].e=I(t[n].e));return t.sort(E)}(i):(u=i.keys,o=i.data||null),u?T(n,r,e,u,o):null}function C(t,n,r){if(!r)return null;var e=[];for(var i in r)if(r.hasOwnProperty(i)){var o=N(t,n,i,r[i]);o&&e.push(o)}return e.length?e:null}function z(t,n){if(!n.duration||n.duration<0)return null;var r=function(t,n){if(!n)return null;var r=[];if(Array.isArray(n))for(var e=n.length,i=0;i<e;i++){var o=n[i];if(2===o.length){var u=null;if("string"==typeof o[0])u=t.getElementById(o[0]);else if(Array.isArray(o[0])){u=[];for(var a=0;a<o[0].length;a++)if("string"==typeof o[0][a]){var l=t.getElementById(o[0][a]);l&&u.push(l)}u=u.length?1===u.length?u[0]:new j(u):null}if(u){var f=C(t,u,o[1]);f&&(r=r.concat(f))}}}else for(var s in n)if(n.hasOwnProperty(s)){var c=t.getElementById(s);if(c){var h=C(t,c,n[s]);h&&(r=r.concat(h))}}return r.length?r:null}(t,n.elements);return r?function(t,n){var r=arguments.length>2&&void 0!==arguments[2]?arguments[2]:1/0,e=arguments.length>3&&void 0!==arguments[3]?arguments[3]:1,i=arguments.length>4&&void 0!==arguments[4]&&arguments[4],o=arguments.length>5&&void 0!==arguments[5]?arguments[5]:1,u=t.length,a=e>0?n:0;i&&r%2==0&&(a=n-a);var l=null;return function(f,s){var c=f%n,h=1+(f-c)/n;s*=e,i&&h%2==0&&(s=-s);var v=!1;if(h>r)c=a,v=!0,-1===o&&(c=e>0?0:n);else if(s<0&&(c=n-c),c===l)return!1;l=c;for(var y=0;y<u;y++)t[y](c);return v}}(r,n.duration,n.iterations||1/0,n.direction||1,!!n.alternate,n.fill||1):null}var L=function(){function t(r,e){var i=arguments.length>2&&void 0!==arguments[2]?arguments[2]:{};n(this,t),this._id=0,this._running=!1,this._rollingBack=!1,this._animations=r,this.duration=e.duration,this.alternate=e.alternate,this.fill=e.fill,this.iterations=e.iterations,this.direction=i.direction||1,this.speed=i.speed||1,this.fps=i.fps||100,this.offset=i.offset||0,this.rollbackStartOffset=0}return e(t,[{key:"_rollback",value:function(){var t=this,n=1/0,r=null;this.rollbackStartOffset=this.offset,this._rollingBack||(this._rollingBack=!0,this._running=!0);this._id=window.requestAnimationFrame((function e(i){if(t._rollingBack){null==r&&(r=i);var o=i-r,u=t.rollbackStartOffset-o,a=Math.round(u*t.speed);if(a>t.duration&&n!=1/0){var l=!!t.alternate&&a/t.duration%2>1,f=a%t.duration;a=(f+=l?t.duration:0)||t.duration}var s=t.fps?1e3/t.fps:0,c=Math.max(0,a);if(c<n-s){t.offset=c,n=c;for(var h=t._animations,v=h.length,y=0;y<v;y++)h[y](c,t.direction)}var d=!1;if(t.iterations>0&&-1===t.fill){var g=t.iterations*t.duration,p=g==a;a=p?0:a,t.offset=p?0:t.offset,d=a>g}a>0&&t.offset>=a&&!d?t._id=window.requestAnimationFrame(e):t.stop()}}))}},{key:"_start",value:function(){var t=this,n=arguments.length>0&&void 0!==arguments[0]?arguments[0]:0,r=-1/0,e=null,i={},o=function o(u){t._running=!0,null==e&&(e=u);var a=Math.round((u-e+n)*t.speed),l=t.fps?1e3/t.fps:0;if(a>r+l&&!t._rollingBack){t.offset=a,r=a;for(var f=t._animations,s=f.length,c=0,h=0;h<s;h++)i[h]?c++:(i[h]=f[h](a,t.direction),i[h]&&c++);if(c===s)return void t._stop()}t._id=window.requestAnimationFrame(o)};this._id=window.requestAnimationFrame(o)}},{key:"_stop",value:function(){this._id&&window.cancelAnimationFrame(this._id),this._running=!1,this._rollingBack=!1}},{key:"play",value:function(){!this._rollingBack&&this._running||(this._rollingBack=!1,this.rollbackStartOffset>this.duration&&(this.offset=this.rollbackStartOffset-(this.rollbackStartOffset-this.offset)%this.duration,this.rollbackStartOffset=0),this._start(this.offset))}},{key:"stop",value:function(){this._stop(),this.offset=0,this.rollbackStartOffset=0;var t=this.direction,n=this._animations;window.requestAnimationFrame((function(){for(var r=0;r<n.length;r++)n[r](0,t)}))}},{key:"reachedToEnd",value:function(){return this.iterations>0&&this.offset>=this.iterations*this.duration}},{key:"restart",value:function(){this._stop(),this.offset=0,this._start()}},{key:"pause",value:function(){this._stop()}},{key:"reverse",value:function(){this.direction=-this.direction}}],[{key:"build",value:function(n,r){return(n=function(t,n){if(M=n,!t||!t.root||!Array.isArray(t.animations))return null;for(var r=document.getElementsByTagName("svg"),e=!1,i=0;i<r.length;i++)if(r[i].id===t.root&&!r[i].svgatorAnimation){(e=r[i]).svgatorAnimation=!0;break}if(!e)return null;var o=t.animations.map((function(t){return z(e,t)})).filter((function(t){return!!t}));return o.length?{element:e,animations:o,animationSettings:t.animationSettings,options:t.options||void 0}:null}(n,r))?{el:n.element,options:n.options||{},player:new t(n.animations,n.animationSettings,n.options)}:null}}]),t}();!function(){for(var t=0,n=["ms","moz","webkit","o"],r=0;r<n.length&&!window.requestAnimationFrame;++r)window.requestAnimationFrame=window[n[r]+"RequestAnimationFrame"],window.cancelAnimationFrame=window[n[r]+"CancelAnimationFrame"]||window[n[r]+"CancelRequestAnimationFrame"];window.requestAnimationFrame||(window.requestAnimationFrame=function(n){var r=Date.now(),e=Math.max(0,16-(r-t)),i=window.setTimeout((function(){n(r+e)}),e);return t=r+e,i},window.cancelAnimationFrame=window.clearTimeout)}();var D=/\.0+$/g;function Q(t){return Number.isInteger(t)?t+"":t.toFixed(6).replace(D,"")}function U(t){var n=arguments.length>1&&void 0!==arguments[1]?arguments[1]:" ";return t&&t.length?t.map(Q).join(n):""}function V(t){return t?null==t.a||t.a>=1?"rgb("+t.r+","+t.g+","+t.b+")":"rgba("+t.r+","+t.g+","+t.b+","+t.a+")":"transparent"}var $={f:null,i:function(t,n,r){return 0===t?n:1===t?r:{x:w(t,n.x,r.x),y:w(t,n.y,r.y)}},u:function(t,n){return function(r){var e=n(r);t.setAttribute("rx",Q(e.x)),t.setAttribute("ry",Q(e.y))}}},G={f:null,i:function(t,n,r){return 0===t?n:1===t?r:{width:w(t,n.width,r.width),height:w(t,n.height,r.height)}},u:function(t,n){return function(r){var e=n(r);t.setAttribute("width",Q(e.width)),t.setAttribute("height",Q(e.height))}}},H=Math.sin,Y=Math.cos,Z=Math.acos,J=Math.asin,K=Math.tan,W=Math.atan2,X=Math.PI/180,tt=180/Math.PI,nt=Math.sqrt,rt=function(){function t(){var r=arguments.length>0&&void 0!==arguments[0]?arguments[0]:1,e=arguments.length>1&&void 0!==arguments[1]?arguments[1]:0,i=arguments.length>2&&void 0!==arguments[2]?arguments[2]:0,o=arguments.length>3&&void 0!==arguments[3]?arguments[3]:1,u=arguments.length>4&&void 0!==arguments[4]?arguments[4]:0,a=arguments.length>5&&void 0!==arguments[5]?arguments[5]:0;n(this,t),this.m=[r,e,i,o,u,a],this.i=null,this.w=null,this.s=null}return e(t,[{key:"determinant",get:function(){var t=this.m;return t[0]*t[3]-t[1]*t[2]}},{key:"isIdentity",get:function(){if(null===this.i){var t=this.m;this.i=1===t[0]&&0===t[1]&&0===t[2]&&1===t[3]&&0===t[4]&&0===t[5]}return this.i}},{key:"point",value:function(t,n){var r=this.m;return{x:r[0]*t+r[2]*n+r[4],y:r[1]*t+r[3]*n+r[5]}}},{key:"translateSelf",value:function(){var t=arguments.length>0&&void 0!==arguments[0]?arguments[0]:0,n=arguments.length>1&&void 0!==arguments[1]?arguments[1]:0;if(!t&&!n)return this;var r=this.m;return r[4]+=r[0]*t+r[2]*n,r[5]+=r[1]*t+r[3]*n,this.w=this.s=this.i=null,this}},{key:"rotateSelf",value:function(){var t=arguments.length>0&&void 0!==arguments[0]?arguments[0]:0;if(t%=360){var n=H(t*=X),r=Y(t),e=this.m,i=e[0],o=e[1];e[0]=i*r+e[2]*n,e[1]=o*r+e[3]*n,e[2]=e[2]*r-i*n,e[3]=e[3]*r-o*n,this.w=this.s=this.i=null}return this}},{key:"scaleSelf",value:function(){var t=arguments.length>0&&void 0!==arguments[0]?arguments[0]:1,n=arguments.length>1&&void 0!==arguments[1]?arguments[1]:1;if(1!==t||1!==n){var r=this.m;r[0]*=t,r[1]*=t,r[2]*=n,r[3]*=n,this.w=this.s=this.i=null}return this}},{key:"skewSelf",value:function(t,n){if(n%=360,(t%=360)||n){var r=this.m,e=r[0],i=r[1],o=r[2],u=r[3];t&&(t=K(t*X),r[2]+=e*t,r[3]+=i*t),n&&(n=K(n*X),r[0]+=o*n,r[1]+=u*n),this.w=this.s=this.i=null}return this}},{key:"resetSelf",value:function(){var t=arguments.length>0&&void 0!==arguments[0]?arguments[0]:1,n=arguments.length>1&&void 0!==arguments[1]?arguments[1]:0,r=arguments.length>2&&void 0!==arguments[2]?arguments[2]:0,e=arguments.length>3&&void 0!==arguments[3]?arguments[3]:1,i=arguments.length>4&&void 0!==arguments[4]?arguments[4]:0,o=arguments.length>5&&void 0!==arguments[5]?arguments[5]:0,u=this.m;return u[0]=t,u[1]=n,u[2]=r,u[3]=e,u[4]=i,u[5]=o,this.w=this.s=this.i=null,this}},{key:"recomposeSelf",value:function(){var t=arguments.length>0&&void 0!==arguments[0]?arguments[0]:null,n=arguments.length>1&&void 0!==arguments[1]?arguments[1]:null,r=arguments.length>2&&void 0!==arguments[2]?arguments[2]:null,e=arguments.length>3&&void 0!==arguments[3]?arguments[3]:null,i=arguments.length>4&&void 0!==arguments[4]?arguments[4]:null;return this.isIdentity||this.resetSelf(),t&&(t.x||t.y)&&this.translateSelf(t.x,t.y),n&&this.rotateSelf(n),r&&(r.x&&this.skewSelf(r.x,0),r.y&&this.skewSelf(0,r.y)),!e||1===e.x&&1===e.y||this.scaleSelf(e.x,e.y),i&&(i.x||i.y)&&this.translateSelf(i.x,i.y),this}},{key:"decompose",value:function(){var t=arguments.length>0&&void 0!==arguments[0]?arguments[0]:0,n=arguments.length>1&&void 0!==arguments[1]?arguments[1]:0,r=this.m,e=r[0]*r[0]+r[1]*r[1],i=[[r[0],r[1]],[r[2],r[3]]],o=nt(e);if(0===o)return{origin:{x:r[4],y:r[5]},translate:{x:t,y:n},scale:{x:0,y:0},skew:{x:0,y:0},rotate:0};i[0][0]/=o,i[0][1]/=o;var u=r[0]*r[3]-r[1]*r[2]<0;u&&(o=-o);var a=i[0][0]*i[1][0]+i[0][1]*i[1][1];i[1][0]-=i[0][0]*a,i[1][1]-=i[0][1]*a;var l=nt(i[1][0]*i[1][0]+i[1][1]*i[1][1]);if(0===l)return{origin:{x:r[4],y:r[5]},translate:{x:t,y:n},scale:{x:o,y:0},skew:{x:0,y:0},rotate:0};i[1][0]/=l,i[1][1]/=l,a/=l;var f=0;return i[1][1]<0?(f=Z(i[1][1])*tt,i[0][1]<0&&(f=360-f)):f=J(i[0][1])*tt,u&&(f=-f),a=W(a,nt(i[0][0]*i[0][0]+i[0][1]*i[0][1]))*tt,u&&(a=-a),{origin:{x:r[4],y:r[5]},translate:{x:t,y:n},scale:{x:o,y:l},skew:{x:a,y:0},rotate:f}}},{key:"toString",value:function(){return null===this.s&&(this.s="matrix("+this.m.map(it).join(" ")+")"),this.s}}]),t}(),et=/\.0+$/;function it(t){return Number.isInteger(t)?t:t.toFixed(14).replace(et,"")}function ot(t,n,r){return t+(n-t)*r}function ut(t,n,r){var e=arguments.length>3&&void 0!==arguments[3]&&arguments[3],i={x:ot(t.x,n.x,r),y:ot(t.y,n.y,r)};return e&&(i.a=at(t,n)),i}function at(t,n){return Math.atan2(n.y-t.y,n.x-t.x)}Object.freeze({M:2,L:2,Z:0,H:1,V:1,C:6,Q:4,T:2,S:4,A:7});var lt={},ft=null;function st(n){var r=function(){if(ft)return ft;if("object"!==("undefined"==typeof document?"undefined":t(document)))return{};var n=document.createElementNS("http://www.w3.org/2000/svg","svg");return n.style.position="absolute",n.style.opacity="0.01",n.style.zIndex="-9999",n.style.left="-9999px",n.style.width="1px",n.style.height="1px",ft={svg:n}}().svg;if(!r)return function(t){return null};var e=document.createElementNS(r.namespaceURI,"path");e.setAttributeNS(null,"d",n),e.setAttributeNS(null,"fill","none"),e.setAttributeNS(null,"stroke","none"),r.appendChild(e);var i=e.getTotalLength();return function(t){var n=e.getPointAtLength(i*t);return{x:n.x,y:n.y}}}function ct(t){return lt[t]?lt[t]:lt[t]=st(t)}function ht(t,n,r,e){if(!t||!e)return!1;var i=["M",t.x,t.y];if(n&&r&&(i.push("C"),i.push(n.x),i.push(n.y),i.push(r.x),i.push(r.y)),n?!r:r){var o=n||r;i.push("Q"),i.push(o.x),i.push(o.y)}return n||r||i.push("L"),i.push(e.x),i.push(e.y),i.join(" ")}function vt(t,n,r,e){var i=arguments.length>4&&void 0!==arguments[4]?arguments[4]:1,o=ht(t,n,r,e),u=ct(o);try{return u(i)}catch(t){return null}}function yt(t,n,r,e){var i=1-e;return i*i*t+2*i*e*n+e*e*r}function dt(t,n,r,e){return 2*(1-e)*(n-t)+2*e*(r-n)}function gt(t,n,r,e){var i=arguments.length>4&&void 0!==arguments[4]&&arguments[4],o=vt(t,n,null,r,e);return o||(o={x:yt(t.x,n.x,r.x,e),y:yt(t.y,n.y,r.y,e)}),i&&(o.a=pt(t,n,r,e)),o}function pt(t,n,r,e){return Math.atan2(dt(t.y,n.y,r.y,e),dt(t.x,n.x,r.x,e))}function mt(t,n,r,e,i){var o=i*i;return i*o*(e-t+3*(n-r))+3*o*(t+r-2*n)+3*i*(n-t)+t}function bt(t,n,r,e,i){var o=1-i;return 3*(o*o*(n-t)+2*o*i*(r-n)+i*i*(e-r))}function wt(t,n,r,e,i){var o=arguments.length>5&&void 0!==arguments[5]&&arguments[5],u=vt(t,n,r,e,i);return u||(u={x:mt(t.x,n.x,r.x,e.x,i),y:mt(t.y,n.y,r.y,e.y,i)}),o&&(u.a=xt(t,n,r,e,i)),u}function xt(t,n,r,e,i){return Math.atan2(bt(t.y,n.y,r.y,e.y,i),bt(t.x,n.x,r.x,e.x,i))}function kt(t,n,r){var e=arguments.length>3&&void 0!==arguments[3]&&arguments[3];if(_t(n)){if(St(r))return gt(n,r.start,r,t,e)}else if(_t(r)){if(n.end)return gt(n,n.end,r,t,e)}else{if(n.end)return r.start?wt(n,n.end,r.start,r,t,e):gt(n,n.end,r,t,e);if(r.start)return gt(n,r.start,r,t,e)}return ut(n,r,t,e)}function At(t,n,r){var e=kt(t,n,r,!0);return e.a=function(t){var n=arguments.length>1&&void 0!==arguments[1]&&arguments[1];return n?t+Math.PI:t}(e.a)/p,e}function _t(t){return!t.type||"corner"===t.type}function St(t){return null!=t.start&&!_t(t)}var Ot=new rt;var Mt={f:Q,i:b},jt={f:Q,i:function(t,n,r){var e=b(t,n,r);return e<=0?0:e>=1?1:e}};function Ft(t,n,r,e,i,o,u,a){return n=function(t,n,r){for(var e,i,o,u=t.length-1,a={},l=0;l<=u;l++)(e=t[l]).e&&(e.e=n(e.e)),e.v&&"g"===(i=e.v).t&&i.r&&(o=r.getElementById(i.r))&&(a[i.r]=o.querySelectorAll("stop"));return a}(t,e,a),function(e){var i,o=r(e,t,Pt);return o?"c"===o.t?V(o.v):"g"===o.t?(n[o.r]&&function(t,n){for(var r=0,e=t.length;r<e;r++)t[r].setAttribute("stop-color",V(n[r]))}(n[o.r],o.v),(i=o.r)?"url(#"+i+")":"none"):"none":"none"}}function Pt(t,n,r){if(0===t)return n;if(1===t)return r;if(n&&r){var e=n.t;if(e===r.t)switch(n.t){case"c":return{t:e,v:A(t,n.v,r.v)};case"g":if(n.r===r.r)return{t:e,v:_(t,n.v,r.v),r:n.r}}}return m(t,n,r)}var Bt={fill:Ft,"fill-opacity":jt,stroke:Ft,"stroke-opacity":jt,"stroke-width":Mt,"stroke-dashoffset":{f:Q,i:b},"stroke-dasharray":{f:function(t){var n=arguments.length>1&&void 0!==arguments[1]?arguments[1]:" ";return t&&t.length>0&&(t=t.map((function(t){return Math.floor(1e4*t)/1e4}))),U(t,n)},i:function(t,n,r){var e,i,o,u=n.length,a=r.length;if(u!==a)if(0===u)n=S(u=a,0);else if(0===a)a=u,r=S(u,0);else{var l=(o=(e=u)*(i=a)/function(t,n){for(var r;n;)r=n,n=t%n,t=r;return t||1}(e,i))<0?-o:o;n=O(n,Math.floor(l/u)),r=O(r,Math.floor(l/a)),u=a=l}for(var f=[],s=0;s<u;s++)f.push(g(w(t,n[s],r[s]),6));return f}},opacity:jt,transform:function(n,r,e,i){if(!(n=function(n,r){if(!n||"object"!==t(n))return null;var e=!1;for(var i in n)n.hasOwnProperty(i)&&(n[i]&&n[i].length?(n[i].forEach((function(t){t.e&&(t.e=r(t.e))})),e=!0):delete n[i]);return e?n:null}(n,i)))return null;var o=function(t,i,o){var u=arguments.length>3&&void 0!==arguments[3]?arguments[3]:null;return n[t]?e(i,n[t],o):r&&r[t]?r[t]:u};return r&&r.a&&n.o?function(t){var r=e(t,n.o,At);return Ot.recomposeSelf(r,o("r",t,b,0)+r.a,o("k",t,x),o("s",t,x),o("t",t,x)).toString()}:function(t){return Ot.recomposeSelf(o("o",t,kt,null),o("r",t,b,0),o("k",t,x),o("s",t,x),o("t",t,x)).toString()}},r:Mt,"#size":G,"#radius":$,_:function(t,n){if(Array.isArray(t))for(var r=0;r<t.length;r++)this[t[r]]=n;else this[t]=n}};return function(t){!function(t,n){if("function"!=typeof n&&null!==n)throw new TypeError("Super expression must either be null or a function");t.prototype=Object.create(n&&n.prototype,{constructor:{value:t,writable:!0,configurable:!0}}),n&&o(t,n)}(u,t);var r=a(u);function u(){return n(this,u),r.apply(this,arguments)}return e(u,null,[{key:"build",value:function(t){var n=l(i(u),"build",this).call(this,t,Bt);n.el,n.options;var r=n.player;return function(t,n,r){t.play()}(r),r}}]),u}(L)}));
__SVGATOR_PLAYER__.build({"root":"euwrC6bAlit1","animations":[{"duration":3000,"direction":1,"iterations":0,"fill":1,"alternate":false,"speed":1,"elements":{"euwrC6bAlit5":{"transform":{"data":{"o":{"x":25.393056333065033,"y":55.508670806884766,"type":"corner"},"t":{"x":-25.393056333065033,"y":-55.508670806884766}},"keys":{"r":[{"t":0,"v":0},{"t":1500,"v":2},{"t":3000,"v":0}]}}},"euwrC6bAlit12":{"opacity":[{"t":500,"v":0},{"t":1500,"v":1},{"t":2000,"v":0}]},"euwrC6bAlit13":{"transform":{"data":{"o":{"x":61.24380279384277,"y":18.635624885559082,"type":"corner"},"t":{"x":-61.24387168884277,"y":-18.635624885559082}},"keys":{"s":[{"t":0,"v":{"x":1,"y":1}},{"t":1500,"v":{"x":0.94,"y":0.94}},{"t":3000,"v":{"x":1,"y":1}}]}}},"euwrC6bAlit15":{"opacity":[{"t":500,"v":1},{"t":1800,"v":0},{"t":3000,"v":1}]},"euwrC6bAlit16":{"opacity":[{"t":0,"v":0},{"t":1000,"v":1},{"t":2300,"v":0}]},"euwrC6bAlit17":{"opacity":[{"t":0,"v":1},{"t":1300,"v":0},{"t":2600,"v":1}]},"euwrC6bAlit18":{"opacity":[{"t":900,"v":1},{"t":1800,"v":0},{"t":2800,"v":1}]}}}],"options":{"start":"load","hover":"freeze","click":"freeze","scroll":25,"font":"embed","exportedIds":"unique","svgFormat":"animated","title":"telescope"},"animationSettings":{"duration":3000,"direction":1,"iterations":0,"fill":1,"alternate":false,"speed":1}})]]></script></svg>
