<svg width="3295" height="996" viewBox="0 0 3295 996" fill="none" xmlns="http://www.w3.org/2000/svg">
<g clip-path="url(#clip0_701_2)">
<path d="M0 228.416L109.833 308.349C219.667 387.085 439.333 548.748 659 515.816C878.667 482.885 1098.33 261.348 1318 132.616C1537.67 3.88505 1757.33 -26.0524 1977 20.9494C2196.67 69.7476 2416.33 195.485 2636 244.283C2855.67 291.285 3075.33 261.348 3185.17 244.283L3295 228.416V899.016H3185.17C3075.33 899.016 2855.67 899.016 2636 899.016C2416.33 899.016 2196.67 899.016 1977 899.016C1757.33 899.016 1537.67 899.016 1318 899.016C1098.33 899.016 878.667 899.016 659 899.016C439.333 899.016 219.667 899.016 109.833 899.016H0V228.416Z" fill="#3B3E5B" fill-opacity="0.57"/>
<path d="M0 185.217L109.833 270.541C219.667 356.779 439.333 526.054 659 539.093C878.667 551.217 1098.33 404.817 1318 331.617C1537.67 258.417 1757.33 258.417 1977 295.017C2196.67 331.617 2416.33 404.817 2636 441.417C2855.67 478.017 3075.33 478.017 3185.17 478.017H3295V844.017H3185.17C3075.33 844.017 2855.67 844.017 2636 844.017C2416.33 844.017 2196.67 844.017 1977 844.017C1757.33 844.017 1537.67 844.017 1318 844.017C1098.33 844.017 878.667 844.017 659 844.017C439.333 844.017 219.667 844.017 109.833 844.017H0V185.217Z" fill="#4B4F75" fill-opacity="0.56"/>
<path d="M0 185.217L109.833 295.017C219.667 404.817 439.333 624.417 659 697.617C878.667 770.817 1098.33 697.617 1318 648.893C1537.67 599.254 1757.33 576.379 1977 563.341C2196.67 551.217 2416.33 551.217 2636 490.141C2855.67 429.979 3075.33 306.454 3185.17 246.293L3295 185.217V844.017H3185.17C3075.33 844.017 2855.67 844.017 2636 844.017C2416.33 844.017 2196.67 844.017 1977 844.017C1757.33 844.017 1537.67 844.017 1318 844.017C1098.33 844.017 878.667 844.017 659 844.017C439.333 844.017 219.667 844.017 109.833 844.017H0V185.217Z" fill="#4B4F75"/>
<rect y="802.017" width="3295" height="193" rx="20" fill="#4B4F75"/>
</g>
<defs>
<clipPath id="clip0_701_2">
<rect width="3295" height="995.02" fill="white"/>
</clipPath>
</defs>
</svg>
